<svg id="SvgjsSvg1006" width="393" height="133" xmlns="http://www.w3.org/2000/svg" version="1.1" xmlns:xlink="http://www.w3.org/1999/xlink" xmlns:svgjs="http://svgjs.com/svgjs" viewBox="0 0 393.203125 133"><defs id="SvgjsDefs1007"></defs><g id="SvgjsG1009" transform="rotate(0 59.3828125 65)"><svg height="130" viewBox="0 0 84.87501525878906 92.89996337890625" xmlns="http://www.w3.org/2000/svg" version="1.1" xmlns:xlink="http://www.w3.org/1999/xlink" xmlns:svgjs="http://svgjs.com/svgjs" preserveAspectRatio="none" width="118.765625" x="0" y="0"><g><svg data-color="1" viewBox="5.024893760681152 2.9999966621398926 84.87501525878906 92.89996337890625" xmlns="http://www.w3.org/2000/svg" data-type="shape" width="84.87501525878906" height="92.89996337890625" fill="#1e1e1e">
    <g>
        <path d="M64 12.7c.2.1.5 0 .5.2-.1 0-.3 0-.2.2.8.1.3-.9.9-.2.1-.4-.4-.6 0-.7.5.1.6.5 1.2.5-.3-.9-2.1-.8-2.4 0m-2.4 5.6c.3-.5.8-.6 1.2-.9-.3 0-.9-.8-.9-.2.8.3-1.1.9-.3 1.1m3.1-1.6c-.8 1.2 1-.4.2 1.2.4 0 .5-.2.2-.5.2-.1.5 0 .5-.2-.7.2-.8-1.4-1.2-.7.2 0 .3 0 .3.2m-9 16.3c-.3.1-.4.3-.5.5.3 0 .9.8.9.2-.7-.1.4-.4.5-.5.1.2 0 .5.2.5V33c-.8.7-1-.8-1.4-.2.2 0 .3 0 .3.2m3-8c.4.7 1.1.1 1.4.5.1.7-1.1.2-1.2.7.3.2.8.4.7.9-.4-.2-.8.7-.9 0 .1 0 .3-.2 0-.2-.5.5.3.9.5 1.4.7.1 1.6-.9 1.2-1.2 0 .3-.7.3-.7 0 .5-.2.2-1.2.7-1.4 0 .2.2.3.2.5-.3.1-.6.4-.2.5.1-.3.4-.4.5-.7-1.3-.5.1-1.1-.5-1.7-.1.4-1-.3-1.2.5.3.1.6.4.2.5-.2-.1-.4-1.1-.7-.3m-2.8 6.9l-.7-.7c0 .4-.1.9.2.9.4.1 1.1.1 1.7-.7-.6-.4 0-1.5.7-2.1-.2.5 1.2.5.5.2-.2-.1-.3-.2-.3-.5.3 0 .4.3.5 0-.7-.3.4-.3.5 0v-.7c-1 .1-1.1 1.1-2.1 1.2-.2.9-.3 1.9-1 2.4m2.6 1.6c-.1 0-.3 0-.2.2.3.1.5.3.5.7-.1 0-.3.2 0 .2.1-.3.3-.1.5 0-.2-.6.5-.5.5-.9-1.2.8-1.2-.6-1.3-.2m2.4-4.7c.4.4-2.2 1.3-1.7.5-.1.2-.2.3-.5.2-.1.4.7 1 0 1.2.2-.6-1.1-.8-.9-.5.7.1.5.9.9 1.2.1-.6.4-1 .7-1.4.4.4.6 1.1 1.7.9.1-1.3-1 .1-1.2-.9 1.3 0 .3-.1 0-.5 1.2-.1.9-.2 1.7.2-.1-.3-.3-1.7-.7-.9m5 58.8c.6-.7-.3.7.2.5 0-.1 0-.3.2-.2.1.2 0 .5.2.5-.2-.7.2-.9.2-1.4-.3 0-.2-.4-.5-.5.9 1.1-1 .1-.3 1.1M54.2 85c-.5.1-.5-.3-.7-.5.1.6-1.8.6-.9 1.2.3-.9 1.3-.3 1.6-.7m-7.3.4c-.5.1-.5-1.7-1.2-.7.3.1.1.3 0 .5.3.1 1.2.7 1.2.2m.9-3c.8-1.3-.2 1.1.9 1.2 0-.4.2-.6.5-.7 0 .1 0 .3.2.2-.7-.7-.7-1-1.4-1.4.2.3-.9.5-.2.7m2.2-.5c-.4-.3-.5-.9-.9-1.2 0 .3-1.5.4-.7.7.4-.9 1.3.8 1.6.5m30.8-1.2c0-.3-.3-.1 0 0 .3.7 1.3-1.2 0-.9-.2.4.7.7 0 .9m-30.1-.5c-.2.6 1.1.8.9.5-.5-.1.3-.7.5-.9.3 0 .9-.1.5-.2-1.3-.5-1 1.4-1.9.6m33.7-.7c.3 0 .2.4.5.5 0-.3.3-.4.5-.5-.1.8-.7 1.9 0 1.7-.3-.3-.1-.7.2-.9 0 .1.2.3.2 0 0-.5-1.1-2-.9-1.2.8.3-.8 0-.5.4m-35.6-.7c.1.5-.3.5-.5.7.4 0 .8.2.9.5-.7-.3-.8.9-.5.2.9-.3.4.9 1.2.7-.7-.7-.3-1.3-1.1-2.1m8.5-2.8c-.3 0-.2-.4-.5-.5-.2.7-.8-.1-1.2 0v.9c.7-.5 1.3-.1 1.7-.4m-6.1-1c-.1.7.5.9 0 1.4.9.1.9-1.3 0-1.4m-1.5 3.3l1.2.9c-.4 0-.2.7 0 .2.2-.3 1.6-1.3.9-.9-.2.4-1.1-.6-2.1-.2m.5-1.2c.3 0 .7 0 .7.2-.5 0-.8.2-.7.7.4 0 .5-.2.2-.5.6-.3 1.2.5 1.2 0-.5.3.4-1.5-.2-.7-.1.2 0 .5-.2.5.2-.8-.4-1 0-1.4-.4.1-.6-.4-.7 0 .8.5-.5.7-.3 1.2m7.4-4.2c-.4 0-.6.2-.7.5.6.4.8.2.2-.2.7-.2.9-.4 1.2-.5-.2-.2-1.9-.6-1.2-.2 0 .2.4.1.5.4m-4.5-1c-.3-.1-1.5 0-.7.2.5.3.9-.6.9 0 .2.5-.6 1.1-.7.5.1 0 .3-.2 0-.2-.4.4.1 1.1.5 1.4 1.4-1 0-2.2-.2-3.1-.5.5 0 .7.2 1.2m21.8 0c.3 0 .2.4.5.5.1-.2 0-.5.2-.5 0 .1 0 .3.2.2 0-.3 0-.7.2-.7.3 0 .6-.1.2-.2-1 .6-.7-.5-.9-.7-.5.6.4 1.1-.4 1.4m-9.3-1.6c.3 0 .5.1.7.2-.2-.6-.7-1.1-1.2-1.4-.1.4-.4-.1-.5.2.5.7 1.1-.2 1 1m5.7-.3c-.1-.3-.5-.3-.7-.5 0 .9 1.3.5 1.7.9 0-1.4 1 .7 1.2-.2-.3 0-.6-.1-.5-.5-.6-.3-1 .7-1.2 0 .4 0 .6-.2.7-.5-.5.2-.5-.2-.7-.4.3.8-.1.7-.5 1.2m-9.7.3c-.7.3.4.3.2-.2-.8-.4-1.6-.8-2.1-1.4-.2.9-.9 1.3-1.4 1.9.9.2.1.7.2 1.4 1.1-.4.3.9.7.2-.7-.6 1.1-1.5.7-1.2-.5-.3-1.2.2-1.4-.7.5.2 1.9-1.7 3.1 0m-7.1 0c-.1.3-.5.3-.7.5 0-.3-.1-.6-.2-.2.2.3.3.6.2 1.2.7.3.6-.4.9-.5 0 .4.7.2.2 0-.5-.5-.5.1-.9.2v-.7c.6-.1.9 0 1.2.2L54 68.9c-.1.3-.3.5-.7.5 0-.4.9-1 .2-1.2v.5c-.3 0-.7 0-.7.2 1 0 0 .2 0 .5.3 0 .6.1.5.5-.9-.1-.6-.4-.5.5-.2 0-.3.2-.5.2-.3-.7-.7-1.3-.5-.2-.2.1-.5 0-.5.2.8-.2.3.8.9.7.3-.8 1.7-2.4 1.7-1.4 0-.1 0-.3.2-.2-.1.9 0 .2.4.6m23.4-2.2c0 .1 0 .3-.2.2-.1-.3-.5-.3-.7-.5.2 1.2.1 1-.5 1.7.4.1-.1.4.2.5-.2-.5 1.2.3.5-.2-.3-.1-.4-.3-.5-.5.9.3.6-.7 1.2-.7 0 .1.2.3.2 0-.1 0-.3 0-.2-.2.2 0 .3-.2 0-.3m-2.6 0c-.3.1-1.6.3-.9.5.7-.2 1.4-.4 1.7-.9-.8.8-1.1-.8-1.7-.2.8.1-.8.6 0 .7-.2-.4 1.1-.4.9-.1m-13.5.3c0 .2.2.3.2.5-.3-.3-.6-.3-.7.2.4 0 .7-.1.9-.2-.5-1.1.2-.3.5-.7-.4 0-.1-.7-.5-.7-.1.7-.7.3-1.2.9-.6-.3-.7.1-.9-.2.5-.4.3 0 .9 0 .7-.5 0-.9.7-1.4.1 1 1-.2 1.2.5-.1 0-.3.2 0 .2.2-.4.3-.7 0-.9-2 .3-1.4-.1-2.8-.2.1 1.6-.5 1.2-1.2 1.4 1 .6 1.6 1.2 2.9.6m-18.5-.3c.3 0 .7 0 .7-.2-.2-.1-.5 0-.5-.2.4-.1-.1-.4.2-.5.1.3.3.5.7.5 0-.3 1.2-.5.5-.7-.9.8.2-1.2-.2-.5-1.4.1-.9.2-1.4 1.6m32.3-1.9c.9-.1 1.2.5 1.7-.2-1 .5-1.6-.8-1.9-.2.1 0 .2.2.2.4m-20.2 0c0 .1 0 .3-.2.2-.4-.9 1-.1.9-.7-.6-.2-1.1-.3-1.7.2 0-.1-.2-.3-.2 0 .4.5 1.7 1.1 1.2.3m24.7-.7c.8.1 0 .6.5.7 0-.5.6-.3.5-.9-.3 0-.2-.4-.5-.5-.1.4-.4.4-.5.7m-33-.9c.1.4-.4.6 0 .7 0-.2.4-.3.5 0-.1 0-.3.2 0 .2 0-.4.6-.2.9-.2v-.7c-.3 0-.7 0-.7.2.2.1.5 0 .5.2-.7.2-.4-.6-1.2-.4m9.3.7c.6.1.6-.5.7-.9-.6.1-1.1.5-1.4.9.6.3.7-.9.9-.2-.1 0-.3 0-.2.2m12.3-1.9c-.6.5-.4-.7-.9.2 0-.1 0-.3-.2-.2.1.4-.4.6 0 .7 0-.4 1.8-.3 1.1-.7m12.8.5c.4-.1.6.4.7 0-.1 0-.3 0-.2-.2 0-.2.2-.3.2-.5-1 .1.2-.6-.7-.7-.7.6.6.8 0 1.4m-32-1c-.1.3-.3.4-.5.5-.3-.6.1-.7-.2-.9 0 1.3-1.1.4-.7.7 0 .3.4.5 0 .7 0-.1-.2-.3-.2 0 .1 0 .3 0 .2.2h.5c.4-1.3 1.4 0 1.7-1.4-.4 0-.8 0-.7-.5.4 0 .9.1.9-.2-.6.1-.5-.4-1.2-.2-.1.5 0 .8.2 1.1m6.9.3c.2-.7.6-1.2 1.4-.7-.6-1.1-1.7-.4-2.1-1.4-.4.8 1.1.8.2 1.2 0-.1-.2-.3-.2 0 .3.3.7.1.9-.2-.1 0-.3-.2 0-.2.7.5-1.1 1.5-1.2 1.2.1 0 .3-.2 0-.2-.4.6.2.4 1 .3m.2-2.2c.8.1.8.9 1.7.9-.1-.5 0-.9.2-1.2-1 .1-1.3-.3-1.9.3m-8.8-.9c-.3.6.9.7.2.9-.1 0-.3.2 0 .2.5-.4.6 0 1.2 0-.1-.6-.8-.4-1.2-1.2.3 0 .7 0 .7-.2-.3 0-.2-.4-.5-.5 0 .3-.1.6-.4.8m-1.6-.7c-.4 0-.8.2-.9.5.4 0 .6.2.5.7.4 0 .9.1.9-.2-.2-.1-.5 0-.5-.2.3 0 .6-.1.5-.5-.7-.1-.9.4-.5-.3m26.5.2c-.4-.1-.2-.7-.9-.5 0 .4-.1.7-.2.9.8.3.2-.8.9-.5 0 .2.2.4.2.1m5.2 3.6c.8.2.4 1.3.7.9.3-.8 1.8 1.1 1.4.2-1-.3-.2-1.2-.5-1.4 0 .3-.3.1-.5 0 0 .3 0 .7-.2.7-.3-.1-.4-.3-.5-.5.7.1.6-.6 1.2-.7.1.2.9.8.9.2-.4-.1-.2-.5 0-.7-1.2-.4.3-1.6.7-1.9.3.4-.2 1.4.2.9-.1-.7.9-.2.9-.7-.4-.2-1.1 0-.5-.7 0 .1.2.3.2 0-.5-.5-.8 0-1.2.2.4-.4.2-1-.2-1.2-.3 1.2-.6 1-.9 1.9-.6 0-.7-.4-1.2-.5-.4.8-.7.7-.9 0 .1 1.1.5 1.6.9 2.1.1-.6.7-.6.2 0 .6-.3.7.1.9-.2-.3-.1-.6-.4-.7-.7.7.6.9-.5 1.2 0-.4 1-1.2 1.9-2.1 2.1m1.7-3.8c-.5-.2-1.3.4-.7.5.2-.2.8-.1 1.2-.7-.6.2-.5-.5-.9-.5-.1.4.3.4.4.7m-29.9 1.4c.5.2 1.6-.3.9-.5-.7.7-.4-.5 0-.7-.1-.3-.9 0-.9-.5.4-.1 0-.4-.2-.5-.6.7.8 1.1.9 1.2-.4.1-.4.7-.7 1m14.7-1.7c0 .3.1.5.2.7-.3-.2-1.6.8-1.6 1.2.1-.3.4-.6.5-.2-.2.2-1.2.8-.5 1.2 0-.1.2-.3.2 0-.2.4-2.3.2-1.4.9 0-.3.3-.4.5-.5-.2.6.5.5.5.9-.5.3-.9.7-.9 1.4.3.1.5.3.9.2 0-.4.2-.6.5-.7.2 0 .3.2.5.2-.1-1.4-1.5.5-1.7-.2.9-.4.5-1 1.7-.9-.4-.2.1-.4-.2-.9.5.1.5-.3.7-.5-.1.3-.5 1.6 0 .9 0-.4.2-.8.5-.9.3.5-.1 1.2.2.7.1-.3.2-.5.9-.7.4-.8-.1-1.9-.7-1.4.1 0 .3.2 0 .2 0-.3-.4-.2-.5-.5.8-.1.8-.7 1.7-.2 0-.4-.2-.5-.5-.2-.3-.6.5-1.4 0-1.4-.1.2-.2.3-.5.2.2.7.2 1.5-.5.9 1 .1-.1-.5.2-1.2-.6.7-.7.1-.9-.5.1.7-.5 2.2.2 1.3m9.5.7c-.1-1.1.3-.5.5 0 .4 0 .8-.2.9-.5-.4 0-.2-.8-.7-.7-.1.4-.3 0-.7 0-.1.2-.5 1.2 0 1.2m-.2-.9c.4-1.1 1.6.5 2.1-.7-.6-.3-2.5-.2-2.1.7M58 58.4c-.3 0-.3-.4-.2-.7-.7.3-.6-.4-.9-.5-.1.7.8 1.6 1.1 1.2m24.7-.9c.2-.7-.5-.4-.9-.5.2 1.2-.9.6-.9.9.6.6.7-.3 1.4-.2 0 .3-.3.3-.2.7-.3-.1-.4-.3-.7 0-.2.9.8.6 1.2.9.4-.9-1-.1-.9-.7 1.1.1.7-1.3.9-1.4-.1.2-.1.3.1.3M57.6 57c0-.2-.4-.3-.5 0 .2.1.3.2.2.5.4 0 .8-.2.9-.5-.4-.1.1-.4-.2-.5 0 .3-.2.4-.4.5m1.6.5c.6.2.5-.5.7-.7-.3 0-.6-.1-.5-.5-.7-.1-.7.6-.9.9.4.7 1.2-.8.7.3m26.3-.7c.3.1.5.3.7.5-.5.4-1.1.6-1.2 1.4.7-.3.9-1.2 1.4-1.7-.3-.1-.5-.3-.7-.5.3 0 .7 0 .7-.2-.3 0-.5-.1-.7-.2.1.3 0 .5-.2.7m-9.7 0c.6-.1-.7 1.1 0 .5.3 0 .5-.4.7 0 .1.3-.9.6-.2.7 0-.6.8-.1.7.2-.8-.2-.4.5 0 .5.3-.6-.1-.7.2-.9.8.2.2.5 0 .9.9-.5.8-.6 1.9-.9.2.4 1.1 1.3 1.4.7-.8 0 .5-.8-.2-.7 0 .3-.3.4-.5.5 0-.2.2-.3.2-.5-.2-.1-.5 0-.5-.2.3 0 .6-.1.2-.2-.6.7-1 0-1.7.7-.1-.6-1-.6-.9-1.2-.3.8-1-1-1.3-.1m-2.8-.5c.4.7-.9 1-.2 1.2.7-.2.5-1.3 1.7-.9 0 .2-.2.3-.2.5.9-.1 1.8 0 1.2-.9-.6-.3-1.5-.3-2.5.1m2.3-.5c.6.1 1-.1.9-.7-.3 0-.7 0-.7-.2.1 0 .3-.2 0-.2-.3.5-.4.4-.2 1.1m9.1.2c.1-.2.2-.3.5-.2-.3-.5.6-.9 0-.9-.2 1-.2-1.2-.5-.2-.3.9-.7 1.1.2.5.3.5-.9.6-.2.8m-30.6-.7c-.1-.3-1.2-.3-.5 0 .3.3.8.2.7-.5-.2-.1-.5 0-.5-.2.4.1.6-.3.2-.5-.4.6-.4.7.1 1.2M51.6 57c.3-.1.6.9.7.2-.1 0-.3 0-.2-.2.1-.8.6 0 .7-.5-.3-.1-.6-.4-.7-.7 1.6-.1-.3-.1-.2-.7.4 0 .7.1.9.2.3-.7.1-.9-.5-1.2.1.5-.7.3-.7.7.8.4-.8 1.1-.5 1.4.4.1.7-1.1.9-.5-.1.4.6.9-.4 1.3m14.5-2.6c.5.1.1 1.1.7.5.5.9-.1 1-1.2.9.1-.6-.5-.6-.9-.7 0 1.4 1 1.4-.2 2.6.2 0 .5 1 .7.2-.2-.1-.3-.2-.2-.5.2 0 .3-.2.5-.2 0 .2.2.3.2.5-.2 0-.3-.2-.5-.2 0 .4.2.8.5.9.1-.8 1.1.4.9-.2-.3-.4.6-.6-.2-.7.3-.1 0-.9.5-.9.3 0 .3.3.7.2.3-.7.1-.9 0-1.9 1.2-.3.3.7.7.7 0-.4.7-.1.7-.5-1 0-.7-.8-.9-.9-1 .8-.3.1-.5-.2-.3.8-1.2-.1-1.5.4M80.6 53c-.4.2-.5.8-.9.9 0-.1-.2-.3-.2 0 .4.7 1.6-.7 1.1-.9m-18.5.7c-1-.3-.9-.6-.2-1.2-.4.1-.5-.3-.9-.2.3.7-1.1.9-.5 1.2.2-.6.8.5.2.7.6.2.5-.5.9-.5 0 .2.4.3.5 0m-2.4-.5c-.8-.2-.7.4-.9.7.6-.7 1 0 1.4-.2-1.3-.3.9-1 0-1.4-.3.9-.6.1-.9-.2-.3.6.6.4.4 1.1m-5.5-1.4c-.5-.2-.8 0-1.4-.5-.2.5-.9.5-.9 1.2.6.1 1.3.1 1.7.5-.4 0-.6.2-.7.5.3 0 .7 1 .9.2-.4 0-.6-.2-.7-.5.4-.1.6.4.7 0-.6-1.3.8-1.3 1.4-1.4-.8.2-.4-.9-.9-.9-.3.4.6.7-.1.9m28.5 2.1c.4.1.2.5 0 .7.4 0 .6.2.7.5-.3 0-.2.4-.5.5 0-1.3-.1-.3-.5 0-.2-.7 0-1-.2-1.2 0 .3-.4.2-.5.5.6.5.5 1.5 1.2 1.9.1-.2 0-.5.2-.5 0 .1 0 .3.2.2.2-1.3.2-1.3-.2-2.4.6-.4.7.1 1.4-.2-.7-1.1-.5-1.9-1.4-2.4.1.6-1.2.9-.5 1.4.4-.8.4.7.7.7 0-.1.2-.3.2 0-.2.7-.6-.4-.8.3m0-2.8c.5.3-.3.6.2.7.1-.3 1.3-1.4.7-.9-.6.2-.8.3-1.2-.2 0 1-.5.2-.7 0 .2.7 0 1 .2 1.2.2-.5.5-.7.8-.8m-19.9.2c-.3 0-.4-.3-.5-.5.2-.1.5 0 .5-.2h-.7c.3.8-1.3 1.4 0 1.7-.5-1.3.2-.2.7-1m12.8-.2c.6.2.5-.5.9-.5.8 1.1-.6 1.7.2 2.4-1-.6-2-.4-1.4.9-1-1-.6.3.2.5 0-1.2 1-1 1.9-1.7.3-.8-1.1-1.1-.2-1.7.3.5.8.8.9 1.4-.4.7-.9 1.3-.9.5-.1.9-.2 1.3-1.2 1.7.5.3.9-.1 1.2.7-.8.5 0-.1-.5-.2-.6.6.6.6 0 1.2.3 0 .5.1.7.2 0-.3.1-.6.5-.5.1-.4-.7-1.2 0-1.4 0 .1.2.3.2 0-.3-.1-.4-.4-.7-.5.4.6-.8.7-.7.2 1.3-.9 2.2-2.3 2.1-3.6-1.1.8-2.8-.4-2.6-.9.2.5-1.2-.3-.5.2 1.5.5-.7.9-.1 1.1m-.7-.7c0-.4-.2-.5-.5-.2 0-.3 0-.7-.2-.7-.1.2-.2.3-.5.2 0-.1-.2-.3-.2 0 .4.2.6.7 1.4.7m-13.5-1c0 .3-.1.5-.2.7.4 0 .7.1.9.2-.1-.4.9-1.4.2-.9-.2.8-.5.2-.9 0m1.8-.2c.5 0 .3.6.9.5.2-.1 1-.6.5-.7-.8.6-1.4-.2-1.4.2M50.4 48c.3.1.4.3.5.5-.4 0-.9-.1-.9.2.4.4 1.1-.1 1.4-.5-.7-.5-1.4-.1-1-.2m16.4-1c0 .5-.6.3-.5.9.3.7 1.6-.8.9-.2-1 .3.4-.6-.4-.7m-5.4 1.2c.1-.7.4.4.5.5.8-.7 1 .1 1.7-.2-.4-.1.1-.4-.2-.5-.5.3-.7.1-1.4.5.2-.4.2-1.6 0-1.2.1.4-1.3.4-.6.9m-7.6 0c.7.1-.8 1 0 1.2.1-.3.3-.5.5-.7.3.1.4.3.5.5-.8.1-.2 1 .2.5.2 1 .7 2.7 1.2 1.7 0 .2-.4.3-.5 0 1-.2.7-1.1 1.2-.7-.6-.3.2-1.2-.2-1.2-.1.3-.3.1-.5 0-.1.4.4.6 0 .7-.3-.5-1.3-.2-1.4-.9 1.2-.3 1.9.5 2.1-.7-1-.2.2.5-.5.5-.7-.3.2-.9.2-1.2-.5.1-.5-.3-.7-.5 0 1.1-.4-.2-.7-.2.1.4-.4.6 0 .7.9-.4-.5 1 .7 1.2-.6 0-.7-.4-1.2 0-.2-.4-.6-1.6-.9-.9m19.9-1.6c-.1.3-.3.1-.5 0-.2 1-1.2.4-1.2 1.2 0-.1 0-.3-.2-.2-.2.7.5.4.9.5-.2-1 1.6-1.1 1-1.5m-20.6 0c.2.1.5 0 .5.2-.5 0 1.8.7 1.2.2 0-.3-.3-.1-.5 0 .3-.8-.8-.2-.5-.9.3 0 .5.4.7 0-.5-.8-2 1-1.4.5m9.4 0c.4 1.4 1.3-.2 1.9 0-.6-.4-1.3-1.4-1.9-.5.3.2.5.6.7.9-.3 0-.4-.4-.7-.4m-6.8-.5c.6 0 .1.8 0 .9.6 0 .6-.5.9-.7-.3.1-.7-.9-.9-.2m1.4.7c-.2-.8.6-1.2-.2-1.4-.1.2 0 .5-.2.5 0-.1-.2-.3-.2 0 .4 0 .1.8.6.9m19.7-1c.7.7-.4.8-.5 1.4.8.1.7-.7 1.2-.9-.5-.2.7-1.1-.2-1.4.3 1.1-.3 1-.5.9m-.3-1.1c-.2 0-.3-.2-.5-.2-.2.5.8.9.7.5-.7 0 .7-.9 0-.9 0 .6-1.2-.6-1.2 0 .3.2 1.2-.2 1 .6m-10.6-1.5c-.1 0-.3 0-.2-.2h-.5c-.9 1.2-.7.4-.2 1.9.3-.8.1-1 .9-1.7m-12.1-.9c.1-.2.2-.3.5-.2 0 .1.2.3.2 0-.7-.2.3-.6-.2-.9.2-.1.5 0 .5-.2-.7.2-1 0-1.2.2.7 0-.4 1.2.2 1.1m30.1 2.8c0-.3.4-.2.5-.5-.4 0-.6-.2-.7-.5 0-.3.3-.3.2-.7-.9-.2-.2 1-.7 1.2.4 0 .4.4.7.5m-6 4.1c-.1.3-.3.5-.5.7.4-1-1.6-.8-.7-.2.8-.8.3 1.3.5.7 1.3-.8.4.5 1.4.5 0-.3.4-.2.5-.5-.9.3-.8-.6-.5-.9-.8.1-.5-1.1-1.4-.9-.3.7.8 0 .7.6m1.7-5.7c-.5-.3-.5-.3-.2.2-.3-.1-.4-.4-.7-.5-.6.3.4.7-.2.9.2-.4-.5-1-.5-.5.3.3.3.9.9.9-.2-1.2.9-.6.9-.9-.2 0-.2-.9 0-.9.6-.1.6.5.7.9-1.2.7-.7 1-1.9 1.7.3-.7-.9-.8-.2-.5-.3.7.4.6.5.9.1.5-.1.9-.5.9.4-.5-.3-1.5-.5-1.2.4.4.6.8 0 1.2-.1-.2 0-.5-.2-.5.1 1.4 1.1.1 1.4.5-.7-.1-.2.9-.7.9-.1-.3-.4-.6-.5-.2.3.1.6.4.2.5-.3 0-.3-.3-.7-.2.2.5-1.2.5-.5.7.3-.2 1.1-1 .9.2.6.1.5-.4 1.2-.2-.7-.9 1.1-.8 0-1.4 1.1-.2.7.3.9.5.1-.6.7-1 1.2-.5.2-.9-1.2-.2-.5-.9-.9 0-.8-.4-1.2.2 0-.3-.3-.3-.2-.7 1.2.3 2 0 2.6.9-.7-.6.1-1.8-.2-1.4-.3 0-.2.4-.5.5-.1-.3-.3-.1-.5 0 .8-.8-.7-.5-.7-1.2.3.3.6.3.9 0 0 .3.1.6.5.5.1-.4-.4-.6 0-.7.6 1 .3-.3 1.2-.2-.2 2.1-.7 3-1.7 4.7.9 0 .4-1.4 1.2-1.4-.1.7-.3 1.2-.2 1.7 0-.1.2-.3.2 0-.3.7-.7 0-1.2.7.1-.8-1.5-1.2-1.7-1.4.5.5-.3.7-.2 1.4.4.7 1-.4 1.2.2 0 .4-.8.2-.7.7.8.5-.3.6.7 2.4-.2-1.2 1.4-.9 0-1.4.2-.9.8 0 1.2-.5.1-.5 0-.9-.2-1.2.8-.6 1.2 0 1.7-.7-.9-.6-.3-1.4.2-1.2-.2-.5-.2-1-.7-1.7.2 0 .3-.2.5-.2.3.1.4.3.5.5-.4.1-.6-.4-.7 0 .3.1.4.4.7.5.2-1.1-.2-1.6-.2-1.9.2.6-.6-.3 0-1.2-1-.4-.3-1.3-.7-1.7-.1.4-1 1-1.2.5.4 0 .8-.2.9-.5-1.2-.1-.5-.3-1.2-.7-.3.1-.1.3 0 .5-.3-.5-.6.3-.7-.2.3-.2.4-.5.5-.9-.8-.1 0 1-.9 1.2-.4-.6.6-.8-.2-.9-.1-.5.7-.3.7-.7-.3-.1-.4-.4-.7-.5 0 .3 0 .7-.2.7 0-.1-.2-.3-.2 0 .8 1.7 0 1.5.4 2.8M67 39.9c-.4-.2-.5-.6-.2-.9-.8-.4-.1.8-.7.7 0-.3-.3-.1-.5 0 .3.8.3.5.5 1.2.9-.1.9-1 1.7-1.2.1 1.1 1-.4.5.2-.6-.2-.8-.8-1.2-1.2 0 .3-.1.5-.2.7.3 0 .7 0 .7.2-.3.1-.4.3-.6.3m19-1.4c-.1-.8-.7.8-.2 0 .6.2.5 1.2.7.7.1 0 .3 0 .2-.2-.8-.2-.2-.5 0-.9-.4-.1-.4.2-.7.4m-20.1 0c-.6-.2-1.4.6-.9.7.1-.7.4.4.7.2.1-.5-.3-.5-.5-.7h.9c.2-.4-.5-1-.5-.5.2.1.3.1.3.3m4-.5c.2 0 1.9.5 1.4.2 0-.4-.7-.1-.7-.5.7.1.4-.6.2-.7-.1.4-.4-.1-.5.2 1 .5-.5.5-.4.8m-1-.9c-.8 0-.7 1.6-1.7.7-.2.8.8.3.9.7 0-1.3 1.2-.5.9-.7.2-.3-.1-.3-.1-.7.3-.5.6.3.7-.2-.2-.1-.3-.2-.2-.5.1 0 .3-.2 0-.2-.1.3-.3.5-.5.7.4-.7-1.2-.8-.5-.5.4 0 .3.5.5.7m20.2-.7c-.3-.1-.4-.4-.7-.5.2.7-1.4 1.5-.7 1.2.9-.4.5.6.9.7.7-.4-.4-1.2.2-1.4.1.1.2.2.3 0m-20.6-1.7c.4-.6-.2-.9.2-1.7-.3 0-1.3-.4-.7 0 .4.8-.5.9.5 1.7m1.9-1.7c.4.1-.1.4.2.5.8-.8-.1.8.7.9-.1-.8 1.5-2 .9-1.7-.6.5-1.4 0-1.8.3m3.3-2.8c-.5-.5-.9.3-1.4.5-.1-.2 0-.5-.2-.5-.1.5.1.9.5.9.6-.3.6-.4.7-.7 0 .4.3.1.4-.2m-1.2-1.9c-.6-.6-1.1.5-.7 0 .7.1-.6 1.2.2 1.4.1-.2 0-.5.2-.5 0 .1.2.3.2 0-.6-.2 0-.7.2-.2-.8-.9.9-.8.2-1.4-.5.6-.9-.9-.9-.9-.5.6.6.8.6 1.6m3.8-1.9c-.1 0-.3 0-.2-.2.5-.1.5.3.7.5.2-.4.8-.7 0-.9-.1.2-1.6.6-.5.6m-1-2.4c0 .3-.4.2-.5.5.5.5.2.5.7 0 0 .1 0 .3.2.2-.1-.4-.3-1.7-.7-.9.2 0 .4 0 .3.2m-4-1.4c.2-.6-1.4-.1-.5 0 .6.1 1 .3 1.4.5.1-.4-.4-.6 0-.7 0 .8 2.1.9 1.4.2-.1.5-.4-.3-.7.2.1-.8-.9-.3-.2-.9-.5-.3-.9.6-.9 0 .1 0 .3-.2 0-.2-.3.1-.1.9-.5.9m3.6-8.8c.1-.4.3 0 .7 0v-.5c0-.1 0-.3-.2-.2-.1.8-.6-.8-.7 0 .7 0-.7.7.2.7M59.7 42.1c-.2.8-.8-.1-1.2.7.3.3 1.1.3 1.4 0 .2.4-.7.8 0 .9-.1-.5.3-.5.5-.7-.3-.1-.6-.4-.7-.7.1 0 .3-.2 0-.2m-5-6.2c.5.1 1.2-.9.5-1.2-.1.2-.2.3-.5.2 0 .3.1.5.2.7-.4-.1-.5 1-.2.3m-5.4 17.8c-.7-.2-.3-.4 0-.7-.7.1-.5-.7-1.4-.5.1.6 1.1 1.5 1.4 1.2M39.3 75c.6 1.8.4.8.7-.5-1-.2-1 .6-.2.2-.3.1-.3.3-.5.3m10.2 11.2c.4.1 0-.9-.2-.9-.3.7-1.1-.5-1.2.5 1.1-.4 1.4.8 1.4.4m26.3-24.5c.4-.4 2.1.4 1.4-.7-1.1.9-1-.8-.9-.5-.4.6-1.3-.7-1.7 0 .1 0 .3 0 .2.2-.2.1-.5 0-.5.2.5.2 1 .4 1.4-.2.8.5-.5.8.1 1m9-21.1c-1-.6.4-1 0-1.4-.3.9 0-.7-.5-.5-.1.4-.4-.1-.5.2.7.2.4.7 0 .9 1 .4-.5 1.2.5 1.9-.7-.1-.9.8-.2.2-.1.5-.6.5-.7.9.5.3 1 .2 1.2 0-.3-.1-.5-.3-.7-.5.5-.3.9.6.9 0-.9-.3-.1-1.1.2-.2v-.7c-.9.4-1.2-.9-.2-.8-.5 1.2.1-.2.5.7.7-1 1.2.5 1.9-.2-1.1-.2-1.1-.9-2.4-.5M67.3 51.3c-.4 0-.6.2-.7.5 1.2.2.6-.9.9-.9.3.7 0 1.6.7 2.4-.6-.5-1.1-1.1-1.9-1.4.2 1-.5-.2-.5.5 1 .4 0 .7-.2 1.2.4.1-.1.4.2.5.4-1.1 1.2.6 1.2-.5-.1-.5-.6.4-.7-.5h.9v.7c.4 0 .7.1.9.2.5-.7 1.1-1.7 1.4-1.9-.7-.2.2-.5 0-.9-1.1-.2-.1-.8 0-.7-.3-.1-.1-.3 0-.5-.4 0-.7-.1-.9-.2-.1.7.6 1-.2 1.2-.7.2-.6-.3-1.2-.2 0 .1-.2.2.1.5m4-8.8c.6.6-1 1.7 0 2.4-1.5-.9-.9 2.2-1.9.7 0 .4.2.8.5.9.1-.4.4 0 .5.2-.6.2-1-1-1.7-.5.4 0 .2.6.2.9-.3.1-.5.3-.5.7.8.1.5-.9 1.2-.9 0 .2.2.3.2.5-.3-.1-.4-.3-.7 0-.4 1 1.1 1.3 0 1.7 0-1.3-.1-.3-.5 0-.1-.3-.4-.6-.5-.2.2.6 1.8 1 2.1.7-.3-.1.2-.9-.2-1.4.9.4.6-.5 1.4-.5-.2-.1-.3-.2-.2-.5-.5-.1-.5.3-.7.5.2-.8-.1-1 .7-1.4.1.3.5.3.7.5-.1-.4.4-.6 0-.7.1.5-.7-.7-.2-.9.4 0 .1.7.5.7-.1-.5.3-.5.5-.7-.3-.1-.1-.3 0-.5-.2-.3-.9-.1-.7-.7.3 0 .4.3.5 0-.3 0-.1-.3 0-.5-.8-.2-1.2-1.4-1.2-1m2.6-11.1c.3-.1.4-.4.7-.5 0 .6-.5.7.2.9.1-.5.6-.5.7-.9-.5-.5-1.2-.5-1.4-.2 1 .2-1 .5-.2.7M45.2 56.3c-.1.7 1.8 1.5 1.2 1.2 0-.9.2-.1.7-.2-.1-.7-1.2-.9-.5-1.7-.3 0-.5-.1-.7-.2.4.7.2 1.3-.7.9M12.5 90.9c0-.3.4-.2.5-.5-.9-1-1.6-.2-2.6-.5 0 .4.2.5.5.2.1.5 1.1 0 1.7 0 0 .5-.4.7-.1.8m13-3.6c-.7 0-1.3 0-1.2.7h.5c.1 0 .3 0 .2-.2-.6-.4.6.3.5-.5m-14.7-.2c.3.6-.1.7.2.9-.1-.5.7 0 .7.2-.4 0-.5.2-.2.5-.6-.2-1.1.9-.7.9.7-.5 1-1.4 1.7-1.9-1.5.5-.1-1.1-1.7-.6m-.2-.7c.1-.2 0-.5.2-.5.3.7-.4.6-.5.9.4 0 .8-.2.9-.5-.5-.8-.5-1.3-1.4-1.2.7.2.3 1.1.8 1.3m.7-1.4c.2.1.3.2.2.5-.1 0-.3.2 0 .2.2-1.9 2.2.5 1.7 0 .1-.2 0-.5.2-.5.2.3.2.9.7.9-.6-.9-.3-1.8-1.2-.9.1-.7-.1-.8-.5-.5.8-.4-.6-1.3 0-.7.2 1.1-1 .7-1.1 1m15-.5c.4 0 .1-.7.5-.7.5-.1.5 1.3.9.5-.3 0-.4-.3-.5-.5.3 0 .5-.1.7-.2 0 .3 0 .7.2.7 0-.3.1-.5.2-.7-.2-.1-.5 0-.5-.2-.8.8-1.6-.3-1.7.2.7-.2-.4 1.7.2.9m7.3-3.6c.1-.5.7-.4.5-1.2-.9-.1-.8.8-1.4.9.5.3.9-.6.9 0-.1.1-.3.3 0 .3m-18.2-.2c.3-.5-.1-.9.5-1.4-.1 0-.3 0-.2-.2-.4-.1-.6.3-.2.5 0-.1.2-.3.2 0-.6.1-1.1 1-.3 1.1m-3.1-1.2c.6.7 2.4-1.4 1.7-1.2-.5 1-1.4.5-1.7 1.2m2.1-2.4c.2.4.1 1.2.5 1.4.1-.4.4.1.5-.2-.5-.3-.3-1.1-1-1.2m-3.1.3c.4.3 1.7-.2 1.9-.2-.3 0-.2-.4-.5-.5 0 1-.7.1-.9 0-.1.3-.4.4-.5.7m6.9-.7c0-.2-.4-.3-.5 0 .2.1.3.2.2.5-.1 0-.3 0-.2.2.5.1.5-.3.7-.5 0 .1.2.3.2 0-.7-.2.7-.2.5-.7-.6-.2-.4.5-.9.5m-2.8-.5c-.3-.1-.6-.4-.2-.5.2.6 1.1 0 1.2-.2-.7-.1-.9.5-1.4 0-.6.2.1 1.4.4.7m7.1.2c.8-1.2-.8-.5-.9-1.2.1 0 .3-.2 0-.2-.6.6.4 1.1.9 1.4M12 75.5c-.3.6.4-.6.9 0 .2-.8-.6-.5-.7-.9.1 0 .3-.2 0-.2-.1.2-.9.8-.9.2.1 0 .3-.2 0-.2-.5.6.5 1.1.7 1.1m9-.3c.6-.3-.4-.7.2-.9.8.5.9.3.9.9.1-.6 1-.1 1.2 0-.2-.7-1.1-.8-1.4-1.4-.3 1.2-2.1-.6-1.9 0 1.1.1.8 1.8 1 1.4m-4.9-.2c-.7 0 1.1-1.4-.2-1.4.4.6-.8 1.8.2 1.4m11.8 6.9c.2-.6.7-.1.2.2.8-.3.2.8.9.5 0-.7-.6-.8-.7-1.4.2 0 .3-.2.5-.2.1.2 0 .5.2.5-.1-.4.4-.6 0-.7 0 .1 0 .3-.2.2 0-.4.4-1 0-.5 0 .5-1.6.8-.9 1.4m2.2-6.9c-1.4-.2 0 .9-.9.9 0-1.4-1.7 1.1-1.2 1.4h1.2c-.6.2-.6.8-1.2.9-.1-.3-.3-.4-.5-.5 0 .1 0 .3-.2.2 0 1 .2 0 .5 0 0 .9-.5.7-.7.9.5-.2.5 1.2.7.5-.5-.5.3-.9.7-1.2.2.7.7 2.1-.2 1.4.9.2.1-.9-.2-.9.2.8-.4.9-.2 1.7-.9.5-1.2.6-1.7.5.4.1-.1.4.2.5.1-.4.3.1.5.2 0-1 .2 0 .5 0 1.5-1.1 2.3-2.1 2.4-2.8-.4.1-.6-.3-.2-.5.1.4.3-.7.9-.9-.3-.1-.1-.3 0-.5-.6 0-.7.5-.9-.2.1-.3.3-.4.5-.5.1 1.4.5-1 .9-.5-.4-.9-.6-1.4 0-2.1-.1 0-.3 0-.2-.2h-.5c.7.6-.8.6-.2 1.7M22 73.4c-.3-.1-.6-.3-.2 0 .6.2 1.1.6 1.9.2-.9-.3.7 0 .5-.5-.3 0-.2-.4-.5-.5-.5.7-.7.6-1.4.2-.1.3-.1.5-.3.6m-8.1-.5c.4.2-.6.9 0 1.2.4-.6 1.8-.4.5-.9.7.2.5-.7 1.2-.5.1.4-.4.6 0 .7.1-.3.3-.5.2-.9-1 .2-1.1.1-1.9.4m17.6.2c-.5-.5-.7-.8-.9-1.4 0 .5-1.1-.1-.5-.5-.6.5-1.1-.4-1.7.2 1.3-.2 1.4 1.8 3.1 1.7M23.2 71c-1.3.2-.8 1-.2.9.2.5-1.2.5-.5.7.3-.5.6.3.7-.2-.9-.6 1.3.3.5-.2-.4-.1.1-.4-.2-.5-.3.4.1-.7-.5-.5.1 0 .2 0 .2-.2m-8.8-.5c-.3.2-.1.9-.7.7 0-.3.3-.4 0-.5.1.3-.9.6-.2.7 0-.5.9.2 1.2.2 0-.3.1-.5.2-.7-.2-.1-.5 0-.5-.2.5.1.9-.1.9-.5-.3-.1-.6-.3-.2 0 0 .3-.4.3-.7.3m22.5.7c.5.2 1.5-.2.7-.5 0 .1 0 .3-.2.2-.3-.7.8-1.2.2-1.4-.2.4-1.1-.2-1.2.2-.1.6 1 .6.5 1.5m-19.4-1.4c.3 0 .5-.1.7-.2v.7c-.3-.3-.7-.1-.9.2 1 .4 1-.4 1.7 0-.6-1.3-.7-1.6-1.7-1.2.1.1.2.2.2.5m13.3-1.2c-.3 0-.1-.3 0-.5-.8-.1-.8.5-1.2.7.3 0 .2.4.5.5 0-.4 0-.8.5-.7-.1.1.1.3.2 0M23.4 70c.5-.1.5.3.7.5.7-.2.6-.1.7-.7 0 .3.9.9.9.5-.2-.4-1-.5-.5-.9-.5-.3-.9.6-.9 0 .5-.1.5-.6.9-.7.1.3.5.3.7.5 0-.3.8-.9.2-.9-.1.7-.4-.4-.7-.2-.3.8.8.2.5.9-.5 0-.3-.6-.9-.5-.5.7-1.4 1.6-1.6 1.5m-4.7-1.9c-.4-.1 0-.4.2-.5.5.6.5 1 1.2.2-1.4-.2-.2-.5-.7-1.2-1.2 1.9-3.5 1.1-.7 1.5m.4-1.9c-.1.7-.4-.4-.7-.2.3.6-.9.7-.2.9.1-.3.5-.3.7-.5-.7 1.5.8.1.2-.2m.8-.4c.2-.6 1 .5.9-.7-.5.3-.9-.6-.9 0 .8 0-.9.6 0 .7m5.4-1.7c-.2.5-.6.6-1.2.7-.6-.1-.2-1-.5-.5-.5.2.4.8.7.9.6-1.2 2-.3 2.4-.5-.2-.1-.3-.2-.2-.5-.7.3-2.2-.4-1.2-.1m-5.4-.2c0-.1-.2-.3-.2 0 .3-.1.6.9.7.2-.4.4 2.4-1.4.9-1.2.6.1-.3.6-.5.7.3-.5.2-1 0-1.2-.6.4-.2 1-.5 1.2-.1-.3-.4-.6-.5-.2.3 0 .4.4.1.5m20.6-2.2c-.1 1.3-.9 1.9-1.4 2.8.8-.3 1.1-1.4 1.9-1.4-.5-.4-.1-.2-.5-1.4m-2.4.3c0-.4-.7-.2-.2 0 .7.5 1.2-.9 1.9-1.2-.9 0-1 .9-1.7 1.2m-10.7-.7c.2-.3.7.2.9-.5.7.4-.6.7 0 .9.1-.5 1.3-.2 1.4 0-.1-.4.4-.6 0-.7-.5.4-1.6.1-.7-.7-.4.7-2.1-.2-1.6 1m-2.6 0c-.3 0-1.3-.4-.7 0 .1 0 .3 0 .2.2 0 .3-.3.4 0 .5 0-.3.3-.1.5 0 .3-.8.3 0 .5-.9-1.8-1-2.2-1.1-.5.2m8.6 1.9c0 .2.2.3.2.5-.8.1 0 .6-.5.7-.1-.4-.4.1-.5-.2.7-.6-.5.4-.5-.2 0-.3.4-.2.5-.5-.6.2-.5-.5-.9-.5.4.8.2 1.2.9 1.9-.2 0-.3.2-.5.2 0-.2-.8-.7-.7-.2.7-.1-.6.9.2.9.5-.3-.3-.6.2-.7.7.3.1.5.5 1.2-1 .7-1.5-.1-1.2 1.9.3-.1 0-.9.5-.9.9.3-.1 1 .7 1.2.1-.4 1.4-.8.7-1.2-.2.4-.5.7-.9.9.6-1.3.3-1.2 1.9-2.1-.4-.1.1-.4-.2-.5-.1.3-.3.5-.5.7.6-1.5-.2-1 1.2-2.4-.2.4-.3 1.4.2.7-.5-.6.7-1.2-.5-1.7.2 0 .3-.2.5-.2.5-.2.5 1.2.7.5-.6-.2.7-1.4 0-.9 0 .3-.3.4-.5.5-.1-1.5-1.6-1.5 0-2.4-.4-.2-1.1 0-.5-.7 0 .1.2.3.2 0-.5-.5-.8 0-1.2.2-.1-.4.4-.6 0-.7-.9.5-.6.7-1.2 1.4-.4 0-.7-.1-.9-.2 0 .4-.2.6-.7.5 0 .6-.5.7.2.9.5-1.4 1.4-.5 2.4-.9-1 1.1.2.5.9.9-.2.7-.9.1-.9.5.3.6.9-.3.9.2-1 .3.5 1.9-.7 1.4 0-.3.4-.2.5-.5-1.4-.4-.8-1.4-1.7-2.1.2.9-1 1.1 0 1.4.1-.2 0-.5.2-.5.5.8.4 1.3 1 1m7.8-4.3c.1.5-.4 1.3 0 .7.4-.7.5-.8 1.2-.5 0-1.1-.7-.5-1.2-.2m-18.7-.2c-.3 0-.2-.4-.5-.5 0 .3-.4.3-.7.2.1.5-.1.9-.5.9.3-1-.9.3-1.2.2.4.1.5.4.5.9.4 0 .8-.2.9-.5-.5.1-.9-.1-.9-.5 1.5-.2 3.3.4 3.8-1.2-.8-.3-.2.8-.9.5.5-.5-.1-.3-.2-.7.3-.1.5-.3.7-.5-1.3 0-.7 1.1-1 1.2m-.7-.8c-.6-.6-.8-.1-1.4-.7.3.5-.6.9 0 .9.1-1.1 1 .6 1.4-.2m14.4 1.2c0-1.1.4 0 .5-1.2H36c-.1.6-.3.9.2 1.2m-.9-1.6c.2-.7-.5-.4-.9-.5.2 1.2-.9.6-.9.9.6.6.7-.3 1.4-.2-.5.5.1.5.2.9-.1.1-.9.6-.9 0 .2-.1.5 0 .5-.2-.4 0-.6.2-.7.5.7.4 1.2.6 1.4-.2-.2 1.2 0 1.7.2 2.1.8-.8 0-1.3-.2-2.4.3-.2 1.2-.8.7-.9-.4.2-.5.8-.9.9.3-.6-.5-1.2 0-1.2-.2.2-.1.3.1.3m-6.2-.3c.4.5.2 1.5.5 1.2 0-.4.5-1.3.2-1.7 0 .4-.5.3-.7.5m8.8-.4c.1-.5.7.3.9.5-1.1.6-1.1 1.4-1.9 1.4 1 .5 1.5-1.1 2.1-1.7-.9-.3-.6-.3 0-.7-.3 0-.5-.1-.7-.2.4.8-1.3-.2-.4.7M22 57c.3 0 .6.1.5.5h.5c0-.2.2-.3.2-.5-.7 0-.7-.3-1.2-.9 0 .6.4.4 0 .9m3.5-1.4c-.5 0-.3-.6-.9-.5-.2.4-.9 1.2 0 1.4-.1-.5.3-.5.5-.7-.2-.1-.5 0-.5-.2.5-.4.9.6.9 0m-4.7-.3c1.1-.1-.3 1.5.2.9.2 0 .3-.2.5-.2 0 .3.1.6.2.2-1-.5.4-1.3 0-1.7 0 .1 0 .3-.2.2 0-.1-.2-.3-.2 0 .6.1-1.5 1-.5.6m15.9-.4c0-.1 0-.3.2-.2-.5 1.3-.4.5.2.7-.4 1.2-1.4 1.4-1.4 2.1.6-.6 1-.4 1.2-.5-.5-.5.1-.3.2-.7-.2-.1-.5 0-.5-.2.3 0 .3-.3.7-.2-.3-.5.6-.9 0-.9-.1.4-.3 0-.2-.5h-.5c.1.1-.3.3.1.4m-1.2.7c0-.3-.1-.9-.2-.5 0 .3-.1.6-.5.5.2 1.2-.1.7 1.2.9.4-1-.2-2.3-.2-1.9.3.3.1.7-.3 1m-6.2.2c.6-.3 1 .7 1.2 0H30c.4-.5 0-.3 0-.9.3-.5.6.3.7-.2-.7-.7-.9.7-1.4 1.1m-9.2.2c.4-.4-.1-.7-.2-1.2.3-.6.7.4.9-.2-.4-.2-1.6-.2-1.2 0 .6.2-.9 1.6.5 1.4m17.3-1.4c1.3-.1-.2 1.3 1.2 1.2 0-.4-.2-.5-.5-.2.6-.7-.5-.9 0-1.2 1.4 1.3 1.1 1.2.2-.5.1 0 .3-.2 0-.2 0 .6-.9.3-.9.9m2.8-.5c-.1 0-.3.2 0 .2.2-.7.9-.1.9-.5-.3.1-.6-.9-.7-.2.1 0 .3 0 .2.2-.6.2-1-1-1.4-.2.6 0 1 .1 1 .5M32.9 53c0-.5 1.1-1.7.5-1.2-.2 1.1-1.1-.7-.7 0 .1.3-.3 1.2.2 1.2m9.2-1.2c-.3 0-.5-.1-.7-.2-.2.8.8.4.9.2.1.4-.4.6 0 .7.1 0 1-.5.5-.2-.3-.1-.7-1.3-.9-.7.2 0 .3 0 .2.2m-6.4 2.1c0-.2-.4-.3-.5 0 .7.3 1.1.1 1.9 0 0-.4-.2-.8-.5-.9-.3.2-.4.7-.9.9M36 52c-.5-.1-1.3.7-.7.9 0-.3.6-.2.5.2.6.2 1.5-1 .9-.5-.8.4-1 .2-.7-.6m-.5-.2c.1-.8.7.9.9 0-1.5 0 .4-1.4-.2-.9-.7-.1-1.1.4-.7.9m-2.8-1c.6.9 1.9-.1 1.2-.5-.4.7-1.2.2-1.2.5m8.7-.4c-.7-.1.4-.4.2-.7-.3-.1-.4-.4-.7-.5-.7.5-.2 1.8.5 1.2m-8.5-1c-.4 0-.9.1-.9-.2.1 0 .3-.2 0-.2-.4.4.1.7.5.9.1-.6 1-.2 1.2-.7-.9.3-.5-.7-1.2-.5-.1.5.2.5.4.7m9.7-3.3c.6-.2 1 .8 1.2.2-1.1-.2.4-.8-.2-.9-.1.5-1.1 0-1 .7m-8 1.2c.4.3-.1 2.6.9 1.9H35c-.1-.8.9-1.9 0-2.8.2 0 .3-.2.5-.2.3.1.4.3.5.5-.2.1-.5 0-.5.2h.7c.1-1.1-1-1-1.2-1.2 0-.2.2-.3.2-.5-1.1.3.5 1.7-.6 2.1m-2.4-1.9c.6 0 .7.4 1.2.5-.1-.4.3-.5.2-.9-1-.2.2.5-.5.5-.4-.1-.6-1.6-.9-.9.2 0 .2.4 0 .8m10.7-1c-.1 0-.3.2 0 .2 0-.3.3-.1.5 0 .2-.7-.8-.3-.5-1.2h-.7c0 .3-.1.5-.2.7.2.7.6-.3.9.3m-7.4.5c.3 0 .3-.3.7-.2.1.2 0 .5.2.5v-.7c-1.4.1-1.5-1.9-1.7-1.4-.1.8 1.2 1.4.8 1.8m7.8-2.6c-.7-.2-.4.5-.5.9 1 0 .5-.3 1.7-.5v-1.2c-.4 0-.9-.1-.9.2.4 0 .8 0 .7.5-.1.3-.5.3-.7.5.2-.9-.9-1.4-.3-.4m-12.8-.2c.1-.2 0-.5.2-.5 0 .1.2.3.2 0-.4-.3-.6-.3-.9 0 0-.4-.2-.6-.5-.7.1.7.6.8 1 1.2m-.4 3.5h-.7c-.1.5.6 1.2.7.7-.2 0 .5-2.1-.5-1.4.3.1.2.5.5.7m-2.2 1.7c-.1.5-.4.5-.7.2.1.8.5 1 1.2.7.1-.5-.1-.9-.5-.9m-.2-.3c.7-.2.5.7 1.2.5.3-.2.8-.4.7-.9-.8-.2-.3.8-.9.7.5-1.1-.2-.3-.5-.7.2-.1 1.4-.9.7-.5-.9-.2-1-.1-1.2-.7-.8 0-.8.8-1.4.9.3 0 .5.1.7.2 0-.5.2-.8.7-.7.3.4.3.9 0 1.2m-3.6 4.5c-.3.9-1.3-.2-1.4.7.3.4.7.6.7 1.2-.3 0-.5-.4-.7 0 .2.1.3.2.2.5.8.1.7-.7 1.2-.9-.2.8.8.3.9.7-.3-.7.4-.6.5-.9-.3 0-.5-.1-.7-.2 0 .3 0 .7-.2.7-.2-1-.4-2-.5-1.8m1.2-3c.4.1.6-.4.7 0-.7.7-.4.2-1.2.9.9.1-.9.4 0 .5.3-.1.4-.4.7-.5-.3.9.5.8.7 1.2-.7-.3-1.3-.7-1.7-.2.3.5.6-.3.7.2.1.7-1.3-.2-1.2.5.7.6 1 1.4 1.9.9-.4 0-.6-.2-.5-.7.6 0 .5-.4.9 0 0-.4-.1-.9.2-.9.1.2 0 .5.2.5.2-.3.6-.5.7-.9-.9-.1-1.2-.8-1.7-.7.7-1.1 1.2-2.1 1.4-2.8-.3.6-1 1.4-1.8 2m-.2-1.5c0 .3-.4.2-.5.5.1 0 .3 0 .2.2-.2 0-.3-.2-.5-.2-.2.7.5.4.9.5.1-.6.6-.8-.1-1m4-6.1c-1.3.1-.6.6-.9 1.7 0-.1.2-.3.2 0-.3.1-.4.4-.7.5.1-.4-.3-.6-.5-.2.3 0 .3.4.2.7h-.7c-.2 1 .5-.2.5.5-.3 0-.3.3-.7.2-.6-.3.5-.8-.5-.7.3 1 .5.8.5 2.1-.6.2-.8.2-1.2.5.7.1-.4.4-.2.7 1 .5.7.2.7.9.4-.5.6-.6.7-.9 0 .1 0 .3.2.2.4-.8-.8-.1-.7-.7.2-.8 1.3-.5.7-1.4.5.5.6.1.9-.2.6.3.1.5.5.7.1-.3.3-.5.5-.7.2.3.6.5.9.7-.2-1-.1-.7 0-1.9-.3 0-.7 0-.7-.2.1 0 .3-.2 0-.2-.1.3-.3.5-.7.5-.2.7 0 1-.2 1.2-.2-.4-.8-.9 0-.5.1-.5-.3-.5-.5-.7 1-.1 1-.8 2.1-1.7 0 .1.2.3.2 0-.4-.7-1.2.6-1.4 0 .4-.3 1.3-1 .8-1.1m7.8 0c.6-.7.1.3.5.2 0-.2.4-.3.5 0-.1 0-.3.2 0 .2.2-.7.9-.1.9-.5-.3-.1-.4-.4-.7-.5-.2.6-1.8-.3-1.2.6m-2.6-1c.1.9.7.3-.2 1.2.3 0 .5.1.7.2 0-.3.1-.6.5-.5.1-.6-.7-1.4-1-.9m8.8.5c.1-.2.6-.9-.2-.7-.1.7 0 2.4.7 1.4-.7-.8.5-1.2.9-1.2 0-.3-.1-.6-.2-.2-.3.1-.7.3-1.2.7m2.1-3.3c.7-.2.4 1.4 1.7.9-.4-.1-.5-.4-.5-.9-.7 0-1.6-.8-1.2 0m-3.5-.7c-.3-.1-.4-.4-.7-.5.2.7-1.4 1.5-.7 1.2.9-.4.5.6.9.7.7-.4-.4-1.2.2-1.4 0 .1.2.2.3 0m-2.6-1.2c-1.2 0-1.2.6-1.9.7.7.6-.1 1.2.7 1.7.5-.5 0-1.1-.2-1.4.5-.7 1-.1 1.4-1m-5.3 1.2c.5-.6-.1.3-.2.5.3 0 .5.4.7 0-.2-.1-.5 0-.5-.2.8.2.9-.9.2-.9.2.2-.8.4-.2.6m13.6.2c-.6.1-.6.6 0 .7.1-.2 0-.5.2-.5-.2-.9-1-1.1-1.2-1.9v.9c.6 0 .6.6 1 .8m3.5-.9c-.5-.1-.2-.9-.7-.9-1 .9.6.3-.5 1.2.8-.3 1-.1 1.2-.3m-12.3 9.7c.6.3-.2.7-.7 1.7 0-.3.3-.3.2-.7-.5-.2-1.5.2-.7.5 0-.1 0-.3.2-.2 0 .4.1.7.2.9-.5.2-.8-.7-.7.2.5-.1.9.1.9.5-.2.3-.2.9-.7.9 0-1-.9.2-1.2-.5.3.3.3.6-.2.7-.1-.2 0-.5-.2-.5.1.4.1 1 .5 1.2-.2-.6.8-1.1.9-.5-.4.2-1.1 0-.5.7.2-.6.8-.5 1.2-.2-.8 1.4-.7.9-.9.5.2.6-.5.5-.5.9.8-.2 1.3 1.1 1.7.5-.2-.4-.8-.4-.7-.9 1.6-1 .2.3 1.7-.2-.4.4.3.7-.5.9.2-.8-.5-.4-.5 0 .7.1.9.3 1.2 0-.6-.2.7-.5 0-.9.6-.1.9-.4.9.5-.3-.1-.5-.4-.5.2.7-.4 1 .9 1.2.2-.4-.1 0-.3 0-.7-.5-.1-.8-.5-1.2-.7-.1.3-.5.3-.7.5-.4-1-1-.3-.9-1.4.9-.2 1.5-.1.7.5.6-.3.7.1.9-.2-.3-.5 0-.2-.5-.5 1.2-.1.6-2.3 1.7-1.2 0-.8-.3-1.5-.7-.7 0-.3-.3-.3-.2-.7h1.2v-.5c-.3 0-.5-.4-.7 0 .1 0 .3 0 .2.2-.5-.4-.3 0-.9 0-.1-.6-.7-1.7-1.2-1m.5-2.9c.4 1-1.2 1.3-.9 1.9.1-.8 1 .4.9-.2-.8-.4 1.2-1.4 0-1.7m1.4-1.4c-.3.1-.6-.9-.7-.2 1 1-1.3-.3-.5.2.6.4.3.3.2 1.2 1.1.2-.3-.6.5-.7 0 .2.2.3.2.5-.3.7-.7 1.3-1.2 1.9.7.2-.1.8-.2.9.6.3 1-.7 1.2 0-.8.3 0 .6.2 1.2.3-.6.1-.6 0-1.4 2.1.9 1.6-3.5.5-1.9 0-.2-.2-.3-.2-.5 0-.4.2-.8.5-.9 1.2-.6.8 1.6 1.2.9-.6-1 .4-1.4.2-1.7-.3.4-1.5.9-1.7 0 1-.3 1.6-1 1.7-1.7-.1.5 1.1.8 1.2.2-.2-.1-.5 0-.5-.2.2 0 .3-.4 0-.5 0 .4-.2.6-.5.7 0-.2-.2-.3-.2-.5.3-.9.6-.3 1.2-.9.1-.7-.4-.8-.2-1.7 1.3-1.2.1 0 1.7 0-.3-1-.9-.9-1.7-.5 0-.2-.2-.3-.2-.5.7.4 1.1-.6.5-.7-.1.5-1.1.1-.9.7.7.1.4.7 0 .9-.9.2.2-1.5-.5-.9.1.5-.3.5-.5.7.5.4.6.2 1.4.9-.5-.1-.5.3-.7.5-.5.1-.5-.3-.7-.5v.7c.8.2 1.2-.6 1.4.2-.8-.2-.5.6-.9.7-.2-.5.7-.8-.2-.7.3 1-.8.6-.9 1.2.6.1 1 .2 1.2.7-1-.7-.2.5-1.2.7.4-.4.6-.8 0-1.2-.2.9 0 .3-.7.7.9.6-1.3-.3-.5.2.2.4 1 1.1.5 1.3M35 32.8c.5-.3-.4 1.5.2.7-.4-1 1.2.2.5-.5-.2-.1-.3-.2-.2-.5.3 0 .5.4.7 0-.3-.3-1-.1-1.2.3m7.4.7c.3.1.5.3.7.5-.8-.2-.4.5 0 .5.4-1 .1-2.6.2-2.8-.1.4-.4-.1-.5.2.6.3-.4 1-.4 1.6m-4.3-.9c.1-.9-.5-1.1-.9-1.4 0 .8-.5 1.3.2 1.7.4-.6-.1-1 .2-1.2.4.1.1.8.5.9m-9.7-1.2c.3.1.4.3.5.5-.1 0-.3 0-.2.2.3 0 .5-.1.7-.2 0 .1.2.3.2 0-.1 0-.3 0-.2-.2.1 0 .3 0 .2-.2-.3 0-.7 0-.7-.2.1 0 .3-.2 0-.2 0 .1-.4 0-.5.3m14 .9c.4-.4-.1-1.5-.7-1.7.2.4-.7.8 0 .9 0-.3.3-.4.5-.5-.2.8-.4 1 .2 1.3m8.8-3.3c-.4 0-.6.2-.7.5.5.1.5.4.2.7.5-.3.9.6.9 0-.7.1.6-.9-.2-.9.2.8-.8.4-.7 0 .4 0 .8-.2.9-.5-.3 0-1.3-.4-.7 0 .2 0 .3 0 .3.2m-14.3 1.4c.2-.7.4.5.7.5.2-.9 1.1-.3 1.4-.7-.5.1-.5-.3-.7-.5-.3.8-.6 0-.9.7-.1-.3-.4-.4-.5-.7.5.5.8-.2 1.2.2-.1-.5.3-.5.5-.7-1 .3-.7-.5-1.7.2.1-.5.4-.9-.2-1.2 0 .3-.4.2-.5.5 1.2.4.3 1.5.7 1.7m3.1-2.1c.5-.1 1.1.9 1.2.5 0-.2-.2-.3-.2-.5.3 0 .9-.1.5-.2-.4-.2-.8.7-.9 0 .1 0 .3-.2 0-.2-.1.2-.5.1-.6.4m10.4-2.8c0 .4.1.7.2.9.4.1.6-.4.7 0-.1 0-.3 0-.2.2 1.2-.6-.5-.4-.7-1.1m-10.9.7c-.1 0-.3 0-.2.2h.5c.1 0 .3 0 .2-.2-.6 0-.3-.9-.9-.9 0 .3-.1.5-.2.7.2 0 .6-.1.6.2m8.8-1.5v.7c.9.3.7-.6 1.4-.5-.2-.7-.2-.5 0-1.2h-.5c-.1 0-.3 0-.2.2 1.1.7-.4.4-.2 1.2 0-.3-.3-.3-.2-.7-.6.1-1.1.3-1.4.7-.3-.2-.1-.9-.7-.7-.4.4.1.9.7.9.3-.1.6-.4 1.1-.6m-4.5 6.9c1.1.5-.4.2-.2.9.6 0 1-.1 1.2-.5-.5.2-.8-1-1-.4m1.4-1.6c-.1.2 0 .5-.2.5 0-.1 0-.3-.2-.2.7 1 1.7 2.9 0 1.4.5 1-.7 1.3-1.2 1.4-.1.6.3.8.9.7.3-1.1.9-1.5 1.9-1.2.2-.9-1-.7-.2-1.4-.3 0-.7 0-.7-.2.3.1 1.5 0 .7-.2-1.5.2-.4-.1-1-.8m1.7-1.9c-.4.8.8.1.7.7-.4.2-.6.8-.2 1.2-.9.4-.4-.1-1.2-.2 0 .3-.1.5-.2.7.9.1 1.6-.1 2.1 0-.3-.1-.5-.3-.5-.7.3.1 1.2 1 .7.5-.2-.8-.8-.4-.9-.7.1-.3.3-.5.5-.7.2.7.6-.3.9.2 0-1.4 1.2-.9 1.4-.9-.4-.1 0-.3 0-.7-1.1.2-1.4 1.2-2.4 1.4 0-.7 1.7-.8.9-1.4-1 .5-.6 1.2-1.8.6m-1.2-3.8c-.4.5-1.6-.8-.7.2-.4 0-.7-.1-.9-.2.1.4-.4.6 0 .7.5-.9-.1 1.1.5.9 0-.4.2-.6.5-.7-.3 1 .6.8-.5 1.4.6-.2 1.1.8.5.9-.1-.2-.2.3-.7.2.2.1 1 .6.5.7-.9-.4-.9-.1-1.8-.1-.2-.4-1.2-1.3-1.4-.9.5.1.5.4.2.7 1 0 1.5.4 2.1 1.2.3-.5 1.3-.5 1.2-1.4.1.4.3 0 0-.2h.9c-.3.5.4 1.1.5.5-.3-.1-.3-.5-.5-.7.6-.3 1.6-.8.7-1.2.5-.2 1.1-.2 1.9.2.2.8-1.6.7-.9 1.2.1-.4.5-.2.7 0 .5-.7.3-.8.9-1.4-.3 0-.7 0-.7-.2.1 0 .3-.2 0-.2-.7.3-1.5-.2-2.4-.2-.2.7 0 1-.2 1.2-1.1-.7.3-1.8 0-2.6 0 .3-1.6-1-1.9-.5.5.1 1.3 0 1.5.5m-4.3.2c.6.4 1-.1 1.7.2v-.9c-.6.2-1.6-.9-1.2-.2 1.1.3-.1.6-.5.9m-9-.5c.6 0 1.2 0 1.2-.5-1.3.7-.5-.8-1.7-.2.5 0 .6.3.5.7m19.2-.2c0 .1 0 .3.2.2.1-.5.5-.6.7-.9-.3-.1-.6-.4-.7-.7.2 0 .3-.4 0-.5-.4 1 .1 1.7-.2 1.9m-1.9-2.1c.2 1.1 1 .6 1.7.9-.2-.4-.4-2.1-.9-1.4.5.6-.2.2-.8.5m-8 .2c.5 0 1.2-1 .7-1.2 0 .8-.8-.5-.7.2.6.1 0 .9 0 1m11.6-1.2c-.4.1-.8-.9-.2-.9.1.2 0 .5.2.5-.1-.4.4-.6 0-.7-.2.4-1.1-.2-1.2.2.6-.1.6 1.7 1.2.9m-11.6-1.9c1.1-.2.2.4.7.5.3.3 1.1-.5 1.4.2-.8.3 0 .6-.7.9.3.1.4.4.7.5.6-.3-.3-.9.2-.9.2.6 1.2 0 1.4-.2-.3-.5-.6.3-.7-.2.2-.1 1.4-.5.7-.7-.5.3-.7.1-1.4.5-.4-.3-1.3-1.5-.7-.2-.8.2-.8-.5-1.2-.7.4.1.8-.9.2-.9.1.5-.4.7-.6 1.2m2.6-2.1c.1-.4.3 0 .7 0 .3-.7.1-1.1-.7-1.2.2 1.3-1-.9-.5 0 .2.7.4.9.5 1.2m-3.1-1.2c.4.5.7.2.9.5-.6.4-.2.4-.5.9 1.3 0-.6.4.2.5.3-.1.5-.3.9-.2 0 1.4 1 .4 1.4 1.2-1-1.3-1.5-.5-1.9-2.8-.3-.6-.7.4-.9-.2.4 0 .2-.7 0-.2.1.1-.1.1-.1.3m9 2.1c1.4.2 2 .4 1.4 1.7.1-.3.3-.1.5 0 .1-.2 0-.5.2-.5-.1.4.3.6.5.2-.6-.7-.8-1.3-.9-1.9.8 0 1.1-.5 1.7-.7-.3-.1-.3-.5-.5-.7.3.1 1.2 1 .7.5-.4-.5-.6-.9-.7-1.2-.4.6-2 1.3-.9 1.9-.9.2-1.4 1-1.4.2-.1.4-.5.3-.6.5M49 23.3c-.2-.1-.5 0-.5-.2.9.2 1-.4 1.4-.7-.8.4-.1-.8-.7-.7-.4.3-1.5 2.1-.2 1.6m-.9-1.2c-.8.3-1.2.6-1.2 0-.6.7.6 1.2.9 1.7-.8-.3-.7.1-1.2.2.5.5 1.5.1 1.4-.7-.3-.1-.5-.3-.7-.5.3-.1.4-.3.7 0 0-.3 0-.7.2-.7 0 .1 0 .3.2.2 0-.6-.5-.6-.7-.9-.3.6.2.3.4.7m.4-2.3c.2-1.1-1-.3-.2-1.4-1.3-.1-.3 1.2.2 1.4m-.4-3.8c-.7.5.6 1 .7.2.9.2.4 1.6-.2 1.7.2-1.4-1.1 0-1.2-.9-.1.3-.3.5-.5.7-.1-.3-.4-.6-.5-.2 1.3.5.5.6 1.9.5.3.6-.1.7.2.9.5-.3.2 0 .5-.5.9.3-.3.9.9.5.3 1.6-2.2 1.5-2.6 1.7.9.4-.5.4-.5.7 1.5.3 1.4-.4 2.4-.9 0 .3.7 1.2.9.5-.7-.5.2-1.1-.2-1.7.2 0 .3-.2.5-.2 0 .3-.3.4 0 .5 0-.1 0-.3.2-.2v-.5c-.3-.1-1.2.3-1.2-.2.5-.2.6-1.1.5-1.4-.1.3-.3.4-.5.5.5-.7-.6-1.5-.7-2.4.2 1.1-1.5.2-.9.7.2-.3.3-.2.3 0m1.9.4c-.3-1.3.4-.8-.5-1.7.5.2 1.5-.2.7-.5-.1.6-.4-.3-.9 0 .1 1.4.1 1.4.5 2.4.7-.3 1 0 1.7.2.3-.7.1-.8-.2-1.4-1-.1-.7 1-1.3 1m.9-1.1c.5-.1.7 1.3.9.7-.8-.9 1.3-1.5.5-2.4.8-.1 1.2 0 1.4-.2-.5-.2-1.7-.1-2.1 0 .4.9-.6.5-.9 1.4.6.3.7-.9.9-.2-.3.1-.5.3-.7.7m-2.8-1.7c-.1 0-.3.2 0 .2.7-.6 1.3.7 1.7 0-.9-.5-1.3-.2-.9-1.9-.3-.1-1.2-1-.7-.5 0 .7-.4 1.3-.1 2.2m-3.3.7c.1-.4-.3-.6-.5-.2.7.1-1.4 1.2-.5.7.9.2 1.3-.2 1.7-.5 0 1.3.8 1.8-.2 2.4 1.1.2 1-.9 1.2-1.7-.3-.1-.5-.3-.7-.5.4-.1-.1-.4.2-.5.3.1.4.4.7.5.1-.9-.7-.7-.7-1.4.5-.3.9.6.9 0-.7-.2 0-1.1.2-1.2-.7-.7-.6.4-1.2.5.5-.5 0-1-.5-1.2.2 1 .7 2.7-.6 3.1m4.2-2.1c.9-.1 1.6.4.5 1.2.3.1 1.2-.3 1.2.2 0 .1 0 .3.2.2-.2-1.2 0-.6-.7-.9.3-.1.3-.5.5-.7-1 .1-1.1-1.7-1.2-1.2-.2.8.1.7-.5 1.2m6.7-.5c.4 0 1.4-1.1.7-.7 0 .1 0 .3-.2.2-.5 0-1-1-1.2-.5.4.1 0 1.1.7 1m-3.6.2c.4.2.6.7 1.4.5.2-.6-.5-.5-.5-.9 1.8-.8 1-.4 0-.9.1 1.3-.6-.6-.7.2.8.3-.5.5-.2 1.1M43.8 10c.2.8-.5.4-.7.2.1.4-.4.6 0 .7 0-.3.7-.3.7 0-.5-.1-.5.3-.7.5 0-.4-.7-.2-.2 0 .6.5.8-.2 1.2.5 0-.7.8-.5.9 0-1.2-.1-1.2 1-1.9 1.4 0-.3.1-.5.2-.7-.9-.2-.2 1.2-.9.5.2 1.1-.8-.4-.9.5.2.1.5 0 .5.2-.4.1 0 .4.2.5-.1-1 1.2-.3 1.2 0 .3-1.4 2.9-2.4 1.4-3.6.3 0 .6-.1.2-.2-.4-.1-.7 1.1-.9.5.1-.2.3-.8-.3-1m-.7-.9c-.2.5-1.3.1-1.4.7.2 0 2.2.1 1.4-.7M29.3 34.9c-.7-.1-.6-1-1.2-1.2 0 .2-1 .5-.2.7.6-1 .7 1.7 1.4.5M40.5 9.8c.5 0 .9-1.3 1.2-.7-.1 0-.3.2 0 .2.2-.4.3-.7 0-.9-1 .6-1.2 1.6-1.7 2.1.1-.5-.1-.9-.5-.9-.1.4.3.5.2.9-.3.5-1.3-.4-.7.5-.3-.6-1.4.6-.9.7 0-.2.8-.7.7-.2-.6.1.6.5.5.9-.8-.4-1.7.2-1.2 0 .5.2.5.7.9 1.4-.3-.6-1.8-.1-1.9-.9.6.9.5-1.3.2-.7-.1 1.1-.1-.3-.7 0 .6.7-.4 1.2 0 1.4.1-.5 1.1-.1.9.5-.3 0-.4-.3-.5 0 .1.4.7.4.9.7-.3 0-.6.1-.2.2.5-.1.9-1.2 1.2-.2-.5.3-.9.7-1.2 1.2.8-.2.5-.2.9.2.6-.3-.3-.9.2-.9 0 .3.4.2.5.5 0 .3-.4.2-.5.5.2 0 .3.4 0 .5-.5-1.2-1.1.4-1.4.2-.3-.1.4-2.1-1.4-2.1 0 .8 1 .4.9 1.2-.4.4-.8-.2-1.2.5.4 0 .1.7.5.7 0-.4-.1-.9.2-.9-.2.7.4.7.2 1.4-.1 0-.3.2 0 .2 0-.3.3-.4.5-.5.1.3.4.4.5.7-.9-.7-.5.4-.7.5-.6-.3-1.4.5-1.4 0 .3-.6.5-.1.7-.5-.8-.2-.1-1.8-1.2-1.7-.3 1.2.4.6.7 1.7-.8 0-1-.5-1.4.2.6.3.7-.1.9.2-.6.5.8.9-.2 1.2.1-.3-.7-.8-.7-.2.4 0 1.3 1.2.2 1.2.4-.4-.1-.7-.5-.9-.5.7-.5.8.2.2.2 1.6.4.8 1.2 1.4-.2-1 .5-1.5.5-2.4.3 1.5-.1 2.1-.9 3.3-.4-.2.2-1-.2-.5 0 .5-.7.9.2 1.2-1.3-.1-.1.5-.2 1.2-.3 0-.3.3-.7.2-.2-1.2-.3-2.1.2-3.1-.4.2-.8-.7-.9 0 1.1.2-.3.4-.2.5.2.3.9.1.7.7-.3-.6-.7.4-.9-.2.1 0 .3-.2 0-.2-.4.5.1.4 0 1.2.5-.1.9.1.9.5-.7 0-.3 1.1-.7 1.4.3.2.7.4.9.7-.4 0 .5 1.2-.5 1.2-.1-.3-.4-.6-.7-.7 0 .7.7.7.5 1.7-.7.4-1.1-.5-1.7-.5.3 0 .2-.4.5-.5 0 .4.8.1.9.5-.1-1-.8-.3-1.2-.7-.1.3-.3.5-.5.7-.6-.3.5-.8-.5-.7 1 1.9-.1 2.7 0 3.6.1-.6 1.5-1.5.5-2.6.5.4 1.3.5 1.7.9-.6-.1-.5.4-1.2.2.6.7.9 1.8.5 2.4-.2-.5-.7-.5-.9-.9-.4 1.8-.1 1.3.2.7.1.5.6.5.7.9-.4.2-.7.8-1.2.2 0 .3.1.5.2.7h.5c0-.4.2-.6.5-.7-.2 1-.8 2.2-1.9 1.2 1 .1 0-.3.2-.9-.4.1-.6-.4-.7 0 0 .6 1 1.3.5 2.4-.5-.1-.5-.6-.9-.7-.4.2-.7.8 0 .9.1-.2 0-.5.2-.5 0 .3.4.2.5.5-.6.2.5.7.2 1.4-1.2.7-.4-.1-.5-.2-.1-.2-.6 0-.7-.2.1.1.5-1.1 0-.5-.4.4-.8 1-1.2 1.4.3 0 .2.4.5.5.1-.3.5-.3.7-.5-.1.3.3 1.2-.2 1.2-.7 0-1.3-.8-1.7 0 .8.2.9 1.2 1.4 1.7-.2 0-.3.2-.5.2-.1-1.1-1.3-.2-.7-.5.4.2.5.6.2.9.9.3.8-.5 1.2-.7.1.3.3.4 0 .7.6-.3.7.1.9-.2.2-.4-1-2.4.2-1.2 0-.8-.6-1.2.5-1.4-.1.4-.6 1.3.2 1.7-.5-1.3.4-.2.7-.7-1.1-.2-.2-1.4-.9-1.7 1 .1 0-.3.2-.9.5-.1 1-.1.9-.7-.4-.1-.6.4-.7 0 .3 0 .2-.4.5-.5.3.8.1-.7.7-.2.3.9-1.3 1.9-.2 1.4-.3.5-1.1 1.2-.2 1.7-.1-.8 0-1.5.9-1.2.1-.1.6-1.1 0-1.2-.4 1.8 0 .3-.2-.5-.3-1.1-.4-.1 0-.5.9-1-.5-1.2.9-.9-.2.5 0 1.1.5 1.2-.7-1.4.1-2.6-.9-3.3 1 0 1.1-.1.5-.5.7-.2 1-.2 1.7 0-.1-.6-.2-1-.7-1.2-.1.3-.3.5-.5.7-.2-.7-.7-1 0-1.7 0 .4-.1.9.2.9.4-.2.5-.8.9-.9-.4.5.2.5-.2.9.6-.3.7.1.9-.2-.4-.4-.7-1.4.2-1.4 0-.7-.6-.8-.7-1.4.5.1.5-.3.7-.5 0 .3.1.5.2.7-.2 0-.3-.2-.5-.2.3 1.5.5-.2 1.2-.2.1-.4-.3-.5-.2-.9.4-.1 1.6-.6.9-.9.4.2-.2-.6-.4-.8.7.1.6-.6 1.2-.7 0 .6.4.5 0 .9.9-.1 1.1-.8 1.4-1.4-.6 0-.7-.4-.9-.7.6.6 1.3.2 1.9 1.2h-.9c.2.4-.7.8 0 .9.1-.4.5-.2.7 0-.2-.7 1-1.2.5-1.4-.1.4-1-.4-1.2-.7.7.1.6-.6 1.2-.7-.5.5.3.5.5.9.2-1.2-.5-2.3-.5-2.6 0 .4-.2.5-.5.2-.1.7.6.6.7 1.2-.8.4-1-.1-1.4-.7.5-.2.6-.6.7-1.2-1.6 0 .4-2.2-.7-2.4.4-.5.6-1.2 1.2-1.4.1-.6-.4-.5-.2-1.2-.8-.3-.2.8-.9.5l-.7-.7c1.3.4.6-.6 1.9-.2v.7c.3 0 .7 0 .7-.2-.6.1-.6-.5-.7-.9 3.2.1.5-4.6-.2-2.8-.3-.4-.4-.6-.5-.8m-3.8.7H36c-.7 1.4.8 1.4.7 0m-4 7.6c.4.4.9-.3.9.7.4 0 .9.1.9-.2-.3 0-.7 0-.7-.2.1 0 .3-.2 0-.2 0 .1 0 .3-.2.2-.1-.4.4-.6 0-.7 0 .1 0 .3-.2.2 0-.3-.1-.6-.5-.5 0 .3-.1.5-.2.7m-5.5 12.1c.7.2 1.3-.9.9-.9-.1.4-1.1 0-.9.9m.5.5c0 .9-.5.7-.7.9.5-.2.5 1.2.7.5-.6-.6.4-.6.5-1.2-.2-.1-.3-.2-.2-.5-1.5-.2-.8 1.3-.3.3m1.4 2.8c-.8 0 .5-.8-.2-.7-.4 0-1.8.1-2.4.7.8.7 1.6.2 2.1-.5-.1.4.5 1.1.5.5m-3.3.7c1-.8.1 1.6.9.7-.5-.2.5-1.1-.5-1.4.3.5-1.1.5-.4.7m-3.3 13.3c-.4-.1 0-.3 0-.7-.4-.1-.9-1.3-1.4-.5 1.2.1 0 1.2 0 1.7 1.1-.9.8-.7 1.4-.5m-15.4 42c-.7-.2.3-.6-.2-.9.2-.1.5 0 .5-.2-.4 0-.7.1-.9.2.3.6-.5 1.2 0 1.2.1-.2.2-.3.5-.2-.2 0 0 .1.1-.1m32.7-24.9c-.1.7-.5 1.1-1.2 1.2 0-.3 0-.7-.2-.7-.1.4-.4-.1-.5.2.6.1-.3.4 0 .9.9-.8 1 .6 2.1-.2-.1-.4.3-1.4-.2-1.4m8.3-20.7c-.4-.1-.6-.4-.9-.5.1.4-.4.6 0 .7.6-.6-.4.8.5.7.1-.2 0-.5.2-.5 0 .4.7.2.2 0-.1 0-.3 0-.2-.2.1.1.2.1.2-.2m2.6-3.3c-.7-.6-.4 1 0 .7-.2 0-.3.2-.5.2-.2-.7-.4-.3-.7 0 .1-.8-.4-1-.7-1.4-.4.8.2.6.2 1.4-.9.1-1.9-.8-1.7 0 .2 0 .3-.2.5-.2.7.8.1 1.4.2 1.9 1-.7 1.1-.5 1.4.7-.4.5-.2.6-1.4 1.4.9.3 1.3-1.1 1.7-.5-.6.3-.9.9-1.7.9-.3-.1-.5-.3-.7-.5.2.3-.2-1-.7-.7.1 0 .3 0 .2.2-.3 0-.7 0-.7.2.3.1.4.3.7 0-.1.5.3.5.5.7-.2 0-.3.2-.5.2-.3 0-.5-.1-.7-.2 0 .7.9.6.2 1.2.3 0 .5-.1.7-.2 0 .3.1.5.2.7-.7.1-.7.8-1.7.7 0 .3 0 .7-.2.7-.1-.2 0-.5-.2-.5 0 .9.6 1.1.7 1.9-.4 0-.7-.1-.9-.2 0 .3-.1.5-.2.7 1.1.2-.3.4-.2.5.5.4.6 0 1.2 0-.1-.9.5-1.1.9-1.4 0 .2.2.3.2.5-.2 0-.7.8-.2.7 0-.1.2-.3.2 0-.8.3-2 1.1-.7 1.4-1.1.1-1.5.2-2.1 0 .1 0 .3-.2 0-.2-.2.3-.5 1.7-.2 1.7.3-1 1.4-.2 1.7-.9-.2.9.3 1.8.2 2.6 0-.9.9 0 .9-.5-.3-.4-.6-.7-.9-.9 1.9.7 1.4-.1 1.9-.9.3.6.3 2.4.2 1.2h.7c.1-1.1-1.1-.8-.9-1.9-.4 0-.9-.1-.9.2.3 0 .3.4.2.7-.5.4-.5-.2-.9.2 0-.2.2-.3.2-.5-.4 0-.6-.2-.7-.5.9-.3.6.7 1.2.7.1-.6-.4-.5-.2-1.2 1.2 0 1.2-.4 2.4-.7-.4 1.4 2.1.8.2.5.2-1-.6-.9-.9-1.4.6 0 .5.4.9 0-.4.7.9 1.1.2.7-.2-.8.3-1 .5-1.4-.8-.3-.2.8-.9.5-.1-.7.5-.9 0-1.4.6.3 1.1-1.1.7-.5-.3 0-.5.4-.7 0 .5-.2 1.1-.5 1.2-1.2-.7-.2-.9.2-1.1-.2.9-.6 2.6 1.2 2.4.7-.7-.4-.8-1.3-1.2-1.9 0 .2-.4.3-.5 0 .7-.3 1.2.3 1.7-.5-.4-.1-.6.4-.7 0 .9-.2.4-.8.7-1.2.8.5 0 1.2.7 1.7 0-.4-.1-.9.2-.9 0 .1.2.3.2 0-.3-.2-.7-.4-.9-.7.3 0 .2-.4.5-.5.3-.1.6.9.7.2-.6-.6-.4-2-1.7-2.6-.1.2 0 .5-.2.5-.1-1 1.8-.5.7-1.4.3-.3 1.2-.4 1.2.2-.3.1-.5.3-.5.7.3 0 .2.4.5.5-.5-1.3.1-.5.5-.7-.6-.4-.3-1-.9-1.7.5.3.9 1.1 1.4.2-1.5-.3-1.7-1.1-3.1-1.2 0 .3.1.5.2.7-.2.1-.5 0-.5.2.6.3 1-.7 1.2 0-.3 0-.2.4-.5.5.1-.1-1.6-.3-.9 0 .3.2.5.4.5.8m-.5-9.7c.1.6.6.8 1.2.9-.1-.4 1.1-.7.5-.9-.5.7-.4-.1-1.7 0m2.4-3.3c.3-.5 1.2-.2.7-.5-1.2-.1-.6.2-1.4 1.4.8.4.8.5.9 0 .3.1.5.3.5.7-.4 0-.5.2-.2.5-.3.1-.6-.9-.7-.2.1.4.7.4.9.7-1.3.6-.8 1.4-1.9 2.1.2.7 0 1 .2 1.2.3-.4 1.2-.3 1.4-.7-.4 1.3.1.8 0 1.9 0-.3.7-.3.7 0-.5.4-1.3-.1-1.9.2.6.6 0 1.1.7 1.4.1-.6.3-1.1.9-1.2 0 .7.8 1.1.2 1.7.2.1.5 0 .5.2-.9.3-.4-.9-1.2-.7 0 .6.1 1.4-.5 1.4-.5-.7-.2-1.7-1.2-2.4-.2.7-.3.8.2 1.2-.2 0-.3.2-.5.2-.4 0-.7-.1-.9-.2-.2.8-.8.4-.9.7.2 0 .3.4 0 .5-.1-.4-.3 0 0 .2-.6.3-1.4-.5-1.4 0 .5-.3-.4 1.5.2.7.5-1.1 1.6.1 1.4.7.5-.4.1-.9 0-1.4 1-.3.8-.2 1.4-.9.3 1.5.7.6 1.4 1.9.7-.1.7-.8 1.2-.9-.4-.1-.6.4-.7 0 .5-.1.8-.5 1.2-.7-.5.6 1 1.3.5 1.2 0-.8 0-.8.5-1.9-.7-.1-.7-.7-.9-1.2.6-.1.4-.8 1.2-1.2-.7 0 .2-1.5-.5-1.4-.6 1 0-.5-.9.5 0-.2-.2-.3-.2-.5.3-.2.7-.4.9-.7-.6-.2-.5-.8-.2-1.2 1 .1-.2 1.4.7.7-.4-1.2-.6-1.2-1.2-2.1 1.1.1.2-.6.5-.9-.1.3-.5.3-.7.5.7-.4-.4-1 .2-1.2.2.8.9.9 1.4.9.6.7-.5.9 0 1.2.3-.3 1.1-.6 1.4-.2.7-.4-.6-.7 0-.9-.1.3.7.8.7.2-.1-.1-.5-.9 0-1.2.8.1-.4 1.3.2 1.2.2-.4.9-.4.9-.9-.3 0-.6-.1-.2-.2.1 0 .3-.2 0-.2s-.3.3-.7.2c0-.2-.2-.3-.2-.5.4 0 .8-.2.9-.5-1-.4.4-.8-.2-1.2-.8.4.1 1.8-.9 1.2.1 2.3-1.1.1-1.4.5.2.1-.5.2-.5.9-.3-.8-.9.1-1.2-.5.2-.1 1.2-.5.5-.7-.4.4-1.4 1.2-1.8.4M45.9 7.7c.3-.5 2-.8 1.4-1.4-.4.4-1.1.7-1.4 1.4m-6.6-4.1c0 .2-.1.2-.2.2-.1.3-.2-.6-.9.2 0 .5.6.3.5.9-.6.4-.8-.2-1.4.2-.1.4.2.4.2.7.4-.1-.1-.3 0-.7.5-.1.3 1.7.6.9.7.3-2 2.2-1.4.9-.7.3.3 1-.2 1.2.2-.1.4-.2.5-.5.6.4-.4 1-.7 1.2.3.7.5-.7 1.2-.5-.3-.6.7-1-.2-.9 0-.6.8-.1.9 0-.4.4-.3 1.1.5.9.1-.4-.2-.4-.5-.5.1-.2.2-.4.2-.7 1 .3.3 1.1.7 1.4-.3.5-1.2-.4-1.4.5.1 0 1.3.3 1.6-.4.7.5-.7 1.4-.9.5.4.4-.7 2.7-1.2 1.7-.7.2.3.6.2.9.3 0 .1-.2 0-.2 1.4-.7 1.3-1.7 2.6-2.6.2 0 .2.3.2.5.2-.2.2-.5.7-.5-.4-.5 0-.3 0-.9.4 0 .8.6 0 .5 0 .6.8.1.7-.2.6.3.9.9 1.9.7 0 .4-.1.9.2.9 0-.6.5-.5.7.5.9-.5-.9-.9 0-1.4 0-.3-.4-.2-.7-.2.4-.5 0-.3 0-.9.7.1.5.3 1.3 0-.6-.1-.6-.4-1.7-.5.1.2.2.4.2.7-.3-.2-.4-.5-.5-.9.4.1 1.4-.4.7-.7.9-.5 1.5-1.2 2.4-.9.4-.1-.1-.3 0-.7.6-.3 1.5.1 1.2-.2 0-.2.1-.2.2-.2h.5c-.5 1.1.1 2-.7 2.6.1.1.4 1.2.5.5.7.4-1.3.4-.9 1.5-.5-.6-1.1.2-1.4-.2.1.2.2.4.2.7.6-.6.4.4.7.7.4-.1-.1-.3 0-.7.2.1.4.2.7.2-.3.5-.5 1.8-1.2 1.2 0 .2.2.2.2.5.5-.1.5-.7.9-.2.5-.1-.3-.6.2-.9.2.7 1.9.1 1.4-.2 1.2-.2 2.3-2.3 2.4-.5 1.3.9 1.9.7 2.4 0-.1.7 1.3 0 1.7 0 .4.1.2.7.9.5 0 .9-.2.1-.7.2.4.6.6.4 1.2.2-.1-.6-.9-.5-.7-1.4-.2.1-.4.2-.7.2 0-.2.3-.2.5-.2 0-.2-.1-.2-.2-.2.5 0 .6.1 1.7-.2 0 .3.1.4.2.5 0 .5-.6-.3-1.2 0 .1.3.4.6.5.2-.1.8.5 1.3 1.2 1.9.5 0-.3-.6 0-1.2.3.1.6.4.2.5.9.8.4 1.3.9 2.4-.2 0-.2.3-.2.5-1.4-.5-.7 0-2.4 0 0 .3.4.2.7.2.1 1-.6.3-.7.7-.3-.1-.5-.3-.5-.7-.9.4.4.7.2 1.2-.8-.5-.2.5.5 0-.5-1.1.5 0 .6-.9.4.7-1.3 1.5-1.9 1.4.4.9 1.4.2 1.7-.7.3.1.6.4.2.5 0 .2.3.2.5.2-.1.4-.7.2-.5.9-.3 0-.2-.4-.2-.7-.2 0-.2.2-.5.2.1.3.4.6.7.7-.4.4-1 .6-1.4.9 1.2.1.3 1-.5.5-.4.1-.5.4-.5.9.4 0 1-.4.5 0 .2.6.8-.4 1.2.2 0 .3-.2.1-.2 0-.4.2-.4.9-.9.9.1.6.6-.3.7-.5.3.1.2.5.5.5-.1.4-.3-.1-.7 0 .1.2.2.4.5.5-.1.3-.4 0-.5-.2-.2.2-.5.3-.9.2.7.5.7.2 0 .7.1.5.6-.3.9.2-.4.3-1.5 1.1-1.4 1.7 0 .6-.6-.1-.5-.5-.2.2-.4 1 .2.9-.1.5-.4.5-.7.2.7.9-1.1 1.4-.5 2.4-.2 0-.2-.2-.5-.2.1.2.2.4.5.5.4-1.2 1 1 1.4-.2.8.4-.6.5-.5.9 2.1-.6.5-.7 1.2-1.9-.3 0-.8 1-.7 0-.2.2-.4.4-.5.7-.7.7.4-.8-.2-.7.9-.3-.2-.7.2-.9.1.3.9 0 1.9-1.2.7 0-.3 1.2.2.5.7.2-.2.5 0 .9-.4-.7-.7-.1-1.2-.5-.5 1 1.7 1.4.5 1.7.1.6.9 0 .7-.5.8-.1 1.1.3 1.2.9.1-.4.8-.8.9-.9.7-.7 2.1-1.8 2.1-1.9 0 .1-2.2-.6-.7-1.4 1.6.2.5.2 2.1.5-.8.4-.3.7-1.4 1.4.7 0 .9-.1 1.9.2.2-.1.2-.6 0-.7 0-.6.8 0 .7.2.5-.1.5-.7.9-.2-.4-.6.2-.9-.5-1.4-.4.9-1 .2-1.4 1.2-.5-.4.2-.6-.2-1.2-.5.4-1.2-.6-1.7-.9-1.1.3-.3.4-1.4.5-.1.5.3.5.7.5-.3.8-.9-.1-.9 1.2 1.1.2-.4-.7.7-.5-.2 1.9-2.2-.4-2.4 1.2-.3-.1-.2-.5-.5-.5.1-.2 1 0 .9-.9-.4.2-.2.7-.7.2.9-.1.9-1.9 1.9-1.2-.1-.3-.4-.6-.7-.7 0-.3.2-.1.2 0 .2-.2.2-.5.7-.5-.4.5 0 .3 0 .9.7-.2-.3-.6.2-.9.7.6.7.6 1.7.7-.3-.6 2-.8.9-2.4-.7.2-1-.3-1.9-.2.4.7.2.9.5 1.4 0 .3-.2.1-.2 0-.7-.2-.6.3-1.2.2.4-.4-.3-.7.2-1.2.6-.2.5.5.9.5 0-.5-.6-.3-.5-.9-.6.2-.7.9-1.4.9-.1-.4 1.1-.7.5-.9.7-.1 2-.4 2.6-1.2-.4-.1-1.2.3-1.9-.5 1.1.2 2.5-.1 2.8-1.2.2 0 .2.3.2.5.2 0 .2-.2.5-.2 0-.2-.2-.2-.2-.5-.6-.5.3.1.5.2.3-.1.4-.4.7-.5-.5.1-.8-.6-1.7-.7 0-.3 0-.7-.2-.7.4-.4 1.3 1 1.7.7.7 0 .3-1.1 1.2-.9-.3 1.2 1.1 1.2.2 1.7 0 .5 1-.5.7.7.3-.1.4-.4.7-.5 0-.3-.2-.1-.2 0-.3-.1-.2-.5-.5-.5.2-.5.8-1 .9-.2.3-.2.8-.4.7-.9-.2.2-.4.4-.5.7-.6-.4.5-.9-.7-.5.4-1-.1.1-.7 0 .1-.7 1.1-.4 1.7-.7-.4-1.1-1.2.6-1.2-.5-.6.6-2.7.5-3.1-.2.4-.1.4.2.7.2.1-.7-.8-.6-.2-1.2.3.6 1.3.3 1.4.5.2-.2.2-.5.7-.5-.1-.2-.7-.4-.2-.5-.1-.4-.4.2-.5-.2-.1-.4.2-.5.2-.2.2-.2.4-.4.5-.7.6-.1.9 0 1.2.2-.2.7-.8-.1-1.2 0 .4.7 1.8.2 1.4 1.7.2 0 .2-.2.5-.2-.2-.3-.2-.9-.7-.9 0-.5.6-.5 1.2-.5v.8c.4-.7.7-.7 1.4-.2.2 0 .2-.2.5-.2-.6-.2-2-1.1-2.8-.2-.7-.2.3-.6 0-1.2.4.1 1 .1 1.2.5.7-.3-.3-1.2.2-1.4.3 0 .1.2 0 .2.2.4.7.2.2.7.6.3.6-1.1.7 0 .3 0 .2-.4.2-.7h.9c0 .3-.4.2-.7.2 0 .4-.1.9.2.9.3-.1.2-.5 0-.5.1-.4.3.1.7 0-.4.2-.7 1.4 0 .7.5.2-.5.7-.5 1.2.2 0 .2-.1.2-.2.8.1-.8 1-.5 0-1.4.8-1.3.8-1.7.9-1.5.5-.1 1-.9 2.8 1.6-.5-.2-1.3 1.4-1.7 0-.4-.8-.1-.9-.5.1-.5 1.2-.1 1.7-.2-.3 1-1.4 1.3-.5 2.1-.6-.1-1 .8-1.9.2-.4.6 1 .5.2.7.2.2.4.4.7.5-.5.9.2 1.6-.9 2.1 0-.3 0-.7-.2-.7.2-.3.5-.4.9-.5 0-.2-.2-.2-.2-.5-.4.6-.6.1-1.4.5.6-.9-.3.1-.7-.5.2.3.4.8.9.7-.2 1 0 .6 0 1.7.2-.1.4-.2.7-.2 2.1.6-1.2.8-1.2-.2-.7.2.6.4.2.9-.2.2-.6.1-.7.5-.4-.1.1-.3 0-.7-1 0-.3 1.5.2 1.4.6.6-.8-.4-.7.5.3.5 1.4-.4.5.5 0 .5.9-.1.9-.5v.7c-.3.5-1.2-.2-1.7.5.2.7-.5-.9.2-1.4-.7-.1-.1-1.6-.7-1.2-.8 0 .5-.8-.2-.7.2-.7 1 .1 1.4 0 0-1.1-1.5-.7-1.4-1.9-.7.3-.9.1-1.2-.5-.2.1-.4.2-.7.2.5.4 1.1.5 1.4.5.3.4.7.6.7 1.2-.8.2-1.1 0-1.9.5 0 .5.8-.3 1.4 0 0 .7-.9.6-1.7.7-.2.7.8.3.5 1.2-.9-.8-.7.7-1.7.5.1.3.4.6.5.2.4.2.1.5-.2.5.1.3 1.6 0 1.9-.2 0-.3-.2-.1-.2 0-.7-.3.4-.7.5-.9-.3-.1-.8-.2-.2-.9.3 0 .1.2 0 .2.3.7.8-.4 1.4-.2-.7.5-1.3 1.2-1.4 2.4.6.1.8-.3.7-.9.2.2.2.5.7.5.1.4-.9 1.9.7 1.7 0 2.2-1.3.9-2.6 2.1.1.4.3-.1.7 0-.3.2-.1.9-.7.7 0-.6-.4-.7-.2-1.4-1.8.8-.4 2.9.9 2.8-.4.9-.8.7-1.2.7 0 .7 1.1.8.5 1.4.2-.1.4-.2.5-.5.7.1-.4.4-.2.7-.3-.1-.5-.3-.5-.7-.5.1-.1 1.2-.9.9.7.3.3.9 0 1.4-.9.1-1.1-.5-1.4-.9-1.1.4 1 1.6-.2 1.4.1.2.2.4.5.5.2 0 .2-.2.5-.2 0-.5-.6-.3-.5-.9.7 0 .3 1.1 1.2.9-.2.2-.4.6 0 .7-.1.4-.4.5-.9.5.1-.3.5-.2.5-.5-.2-.7-.4.5-.9.2 0 .4.8.2.7.7-.5-.5-.8 1.2-1.9 1.4.3 1.1.7-.4 1.2.2-.2 1.2-1.1 1-.7 1.9-.6 0-.3.2-.2.5.3.5-.6-.9-1.2 0 .3-.5.8-.9 1.2-1.4 0-.5-1.1.4-.5-.5-.7 0-.6.4-1.4.7.3-.8-.8-.2-.5-.9-.6.5-.5.3-1.4.2 0 .4.3.5.2.9.3-.1.2-.5 0-.5.3-.6 1.2.7.7.9.2-.1.4-.2.7-.2-.1-.5-.9-.2-.7-.9.8.2 1.4 1 1.4 1.4-.2.7-.6-.3-.9.2.1.3.4.6.5.2.3 0 .2.4.2.7.2 0 .2-.3.2-.5.1-.1.6 1.4.9 1.9-.5-.4-.5.2-.9-.2 0 .7.5.8-.2.5-.4.6.8.7.7.2.3 0 .1.2 0 .2 0 .2.3.2.5.2-1.3 2 0 .1 0 1.6-1.3-.3-1.3-.4-.2-1.2-.6-.5-1.3-.5-1.7 0 .2.4.5.1.5-.2-.6.9 1.4 2.1 0 2.8.8-.1.6.7 1.4 1.4-.2.4-.6.7-.7 1.2.1.8 1-1.3.9 0 .3-.2.4-.5.5-.9-.2-.8-.5 0-.9-.5.2-.5.5-1.6-.5-1.9.7-.3 1.8-1.4 1.4-1.9.2-.3.6.1.7-.7.3.8.9 0 1.7 0-.2-.7-.8.1-1.2 0-.1-.3-.4-.6-.7-.7.2-1.1.2-1 .7-1.9.2.7 1.2 0 .7.9.5-.1.5-.7.9-.2-.8-.5-.7-2-.2-3.1.6.4.8-.3 1.2.2.5-.1-.3-.4.2-.7-.2.2-.6.1-.7.5-.7-.5.7-.7.9-.9-.3-.4-.8-.9.2-.9-.2-.4-.4 0-.7 0-.7 0 1.1-.8.2-.9.9 0 .2-.7 1.9-.7-.2-.7-.6-1.2-.9-1.7.1-.5.8.2.7.7.5 0 .1-.8.2-1.2-.8.4-.1 0-.2-.7.2.4 1 .5.5.9 1.3-.6.7-.6 1.7-1.2-.4 0-1.7-.2-1.2.7-1-.7-.3-1.4-.5-2.1.7 0 .9.5 1.2.9.3 0 .1-.2 0-.2.2-.3.6-.5.9-.7-.5-.5-1.1 1.1-1.7 0 1.1.2.3-3.3.7-.7.5-.4 0-1.3.9-.7-1.3-.5.6-1.7.2-1.9.1-.4.4.2.5-.2.6.2-.5.5-.5.9 1.3.5 1.2-1 1.9-1.7-.1-.5-.6-.5-.9-.7.3-.6.5-.7 1.2-.5-.4-.3-.7-.6-.9-.9.2-.3.5-.4.9-.5-.5.5 0 1 .5 1.2.1-.4-.2-.4-.5-.5-.2-.6.5-.5.5-.9.5.1.5.6.9.7-.9-1.3-1.2-3-.2-3.6.5.1-.3.6.2.9.3 0 .1-.2 0-.2.1-.5 1 0 1.2.2.2 0 .2-.3.2-.5-.1-.5-.6.3-.9-.2.3-.2 1.6-.8 2.1-.7.7.2-.3.6-.2.9.5 0 .3-.6.9-.5-.1-.2-.2-.4-.2-.7-1 .2-1.2-.4-2.1.5-.2-.8.4-.5-.7-.7.1-.2.2-.4.2-.7 1.2 1 1.1-.3.9-.9.1-.2.7-.4.2-.5.1-.6.9 0 .7.5.5-.6-.3-.6-.2-1.2 0 0 .6.5.7.5.3-.3-.8-.7-1.2-1.2.3-.1 1-.4 1.4-.9.8.5 1.4.4 1.9-.5.3 1.5 1.1.7 1.9 1.2v.7c-.6.4-1-.1-1.2.2-.8-.2-.2-.5 0-.9-1 .2-.2.9-.9 1.2.6.3 1.5.2 2.4-.2-.2.7.3.6.2 1.2-.2-.2-.2-.5-.7-.5.8.7.7 1.1-.2 1.7-.6-.1-.4-.8-1.2-.7.6.5.7.4.5 1.4.2-.5 1.4-1.2 1.4 0-.2-.1-.4-.2-.5-.5-.2.1-.4.2-.5.5.9 0-.3.4.2.9-.5-.1-.7.1-1.9.2.1.5.7.8.2 1.2.7-.5.3.6.2.9-.3-.1-.4-.4-.7-.5.4.8-.1.2-.5 0-.3 0-.1.2 0 .2-1.2.8.6.4-.5.9.2.4.6.5.9.2.4-.6-.1.5-.5.5.6.4.1.6.7 1.2-.2-.1.8-1.3.5-.7.3-.2 1.5 1 1.9.7-.2.5 1.1 1.8-.5 1.9 0-.2.3-.2.5-.2-.1-.2-.7-.4-.2-.5-1.6-.9-.3 1.3.7 1.7-.2.3-1.3-.1-.5.7-.2.4-.5.9-.9.5.2.7.2.5 0 1.2-.3 0-.7 0-.7.2-.2-.2-.4-.4-.5-.7-.3.3-.9.3-1.2 0 .8.6.6 1.6 1.7 1.7-.4 1.6-.6 1.9-.9 3.8-.6-.2-.5.5-.9.5-.9-.2-.6-.1-1.7-.2.6.3.3.9-.2.5.3.3.1.4 0 .7.9-.5-.5.8.7 1.2-.2.4-.6.5-.9.2 1.6 1.6.9-1.6.7-1.7.2-.5.8-.9 1.2-.5-.5.6-.3 2 .7 1.9 0-.2-.3-.2-.5-.2 0-.3.4-.2.7-.2 0-.3-.4-.2-.7-.2 0-.4.4-1 0-.5-.7-.1.4-.4.2-.7.3.3.5.7.7 0-.1.9.5.4.5 1.7-.7 0-1.1.7-2.1.9.1 1.3.3.9.9 1.4-.2.4-.6.7-.7 1.2-.2-.1-.4-.3-.5 0 .1-.5 0-.8-.5-1.7.4.1.4-.2.7-.2-.1-.3-.5-.2-.5-.5-.1.4-.2 1-.9.2.1.5.5.8.7 1.2-.2.8-.5 0-.9.5.2.7.8-.1 1.2 0-.6 1.6.4-.1.7 1.2-.5-.9-.9 1 0 .7.5-.6-.2.7-.9.2.1.2.2.4.5.5-.2.7-.4-.6-.9-.2.1-.3.4-.6.7-.7-.2-.4-.6-.7-.7-1.2-.3 0-.1.2 0 .2 0 .3-.4.2-.7.2.8.2 0 .9.5 1.2-.2.3-.5 0-.9.5 1-.1.5.9-.2.5-.4.2-.2.7-.7.2.4 1.1 1.2-.4 2.1-.2-.3.1 0 .9-.5.9.1.4 1.2-.6.2.2.1.5.6.5.7.9 0-.2.5-.8.2-.9.1-.5.8.2.7.7-.8-.2-.4.5 0 .5-.2.4-.4 0-.7 0 .1.2.2.4.5.5.9-.1-.2-1.1.9-1.2 0-.4-.8-.1-.9-.5.3-1.5-.2-.8 0-1.7.2-.5 1-.7.9.2h-.7c.7.7.6.1.2 1.4.3-.1.9-1.6.9-.5.6 0 0-.8-.2-.7.1-.5.6-.5.9-.2-.2-.2-.3-.5-.2-.9-.2.2-.4.4-.5.7-.5 0 .2-.9.2-1.2.5-.1.6.2.9.2-.2-.6-1.4-.9-.7-1.7.5.2.7.7.9 1.2.4-.3-.7-1.1.5-1.2 0-.7-1.1-.3-.9-1.2.4.2.7.6 1.2.7.2-.2.9-1.1.5-1.2.2-.8.5.3.7.2-.1.3-.4.6-.7.7.1.8 1.1-.7.9.5.4 0 .1-.8.5-.9-1.2.8 0-1.4-1.9-.9.1-.5.4-.5.7-.2-.1-.2-.5-1.2-.7-.5-.9-.4.6-.4.2-.9.2.1.4.2.7.2-.3.3-.1.6 0 .2.5.4.1 1.7.7 1.9-.1-.1.6-1.5-.2-1.4.7-.4.6-.3.7-.9.2 0 .2.3.2.5.4-.1.2-.7.9-.5-.4-.4-1.2-.8 0-.5-.2-.2-.3-.5-.2-.9.7.4.7 0 1.7-.2.1.8-1.1 1.5 0 1.9-.1.5-.6.5-.7.9-.4-.9-.8.7-.7-.9-.4.4-.6 1-.9 1.4 1-.4-.8.8 1.2.2-.5-.8.1 0 .2-.5.4.1-.2.4.2.5-.1.5-.4-.3-.7.2.2.4.7.2.2.7.4 0 .6-.2.7-.5.8.2-.9.9-.2.9-.2.7-.6-.3-.7-.5-.6.5-.5.6-1.2.7.1.3.6.2.9.2-.8 1.3.3-.2.2 1.2.7.3 1.1-1.1.2-.9.5.1 2.7-1 1.9-.5-.3.2-.5.6-.9.7.2.7.6-.3.9-.2 0-.7-.9 2.7-1.2 1.9-.2.7.7.5.5 1.2.6-.2 1.4-.9 1.9-.5-.1-.2-.2-.4-.2-.7-.9.5-.6-.1-.9-.7 0-.9.9-.9.9-1.7.8.4.1 0 .2-.7h.7v.9c.4.1.4-.2.7-.2-1.4-.1 1.1-1.1.5-1.7.2-.6.6.4 1.2.2-.5-.6.1-.6.2 0 .2 0 .2-.2.5-.2-.1-.7-1.3-.1-1.2-.9.4 0 .8.2.9.5.2 0 .2-.2.5-.2 0-.2-.3-.2-.5-.2.5-1.5-.2-.9-.7-.7-.4-.1.2-.4-.2-.5.2-.2.8-.2 1.7-.2-.4.6.6.7 0 1.4.6.3.4-.6.2-.5 1.1-.9.9 2.3 1.7 2.4-.6.4-.5 1.4-1.7 1.2.6.7-.3 1.2-1.2 1.2 0 .6.9.4 1.2.7-.2.7-.5-.2-.9 0-.1 1.5-.2 2.2.7 3.1-1-.2-1.1-.6-1.2-1.2-.5.1-.6.5-1.2.5 0 .3.4.2.7.2-.8 1.4-1.2.8-1.9.9 0 .4.8.2.7.7.3 0 .1-.2 0-.2.1-.7 1.3-.1 1.2-.9.9.4 0 .3 0 .9-.3-.3-.4-.1-.7 0 .1.5.4-.3.7.2-.3.7.4.3-.2 1.2-.4-.3-.4.3-1.4.5 0 .3.2.1.2 0 .3.1.1.7.5.7-.2.4-.4 0-.7 0-.2.8.8.3.9.7 0 .6-.4.7-.5 1.2-.3 0-.1-.2 0-.2-1-1-.9 1.1-1.2-.5-.3.1-.1 1.6-.5.5-.5.2 0 1.4.5 1.4.5-.1.5-.4.2-.7.1-.8.5 1.2.7.2.6.1-.2.7-.7.5.5.5-.1.5-.2.9.1.7.7.7 1.2.9-.1.3-.4.4-.5.7 0 .2.2.2.2.5.2-.2-.1-.8.5-1.2.5 0 .5.6.5 1.2.6-.3 1.6-.7 1.2.2.4 0 .6-.2.7-.5-.3.2.5 1.5-.2.9.1.2.2.4.5.5.2 0 .2-.3.2-.5.9.3-.2 1.3.7 1.4-.3.6-1.3-.4-.7-.7-.2.2-.6.1-.7.5 0 .3.2.1.2 0 .8.3.3 1.2.9.7.5.1-.7.6-.7.9.2.6.7-.8 1.2 0-.9.6-.9.7-2.1.9-.1.2.1.5.2.5-.9.7-.4.4-.5.9-.3 1.4-.2 1.9-1.4 2.8.5.2 1.5-1.2 2.1-1.7.1.6 1.6.7.9 1.4h.9c.2.2.1.6.5.7-.1.5-.6-.4-.7.5.2.3.6-.1 1.2.2-.2.7-.4.3-.9.2-.2.4.7.8 0 .9.2.6.5-.7.9 0-.8.9-1.3 2-1.4 2.6-.1.3-.4 0-.5-.2.1.2-.4 1.4-.2 1.4.5 1.3 0 .2-.5.4 0-.2.1-.2.2-.2-.1-.5-.4.3-.7-.2.5.6.2.6.5 1.2.3-.2-.1-.8.7-.2v.5c-1-.2-.6 1.3-1.9 1.9 0 .3 1 .4 0 .5.4.3.6.8.7 1.4-.5.3-.9.7-1.2 1.2-.3 0-.1-.3-.5-.7 0 .5-.4 1.4-.2 1.9.2 0 .2-.3.2-.5.5.2 0 1.2-.7.9-.2.9.4 1.8 0 2.1.7-.5.4.3 0 .5.7-.4 2.2.2 2.8-.9.1.7-.2 1.7-.7 1.2.1.2.2.4.2.7.5-.2.4-1 1.2-.9-.7-.7-.1-1.2 0-.5.6-.7-.4-.5-.7-.7.7-.7 1.5-.2 2.1-.7-.8-.5.8.1 0 .2 0 .2.3.2.5.2-.3.3-1.1.6-1.4.2 0 1.6.4.1.7.9.2 0 .2-.3.2-.5.4 0 .5.3.9.2 0 .4-.6.8-.5 0-.5.2-.7.7-.7 1.4-1.1-.7-.5 0-1.2.5-.5.1-.6-.2-.9-.2-.3.1-.4.4-.7.5.1.5.6-.3.9.2.2.6-.5.5-.5.9-.5-.4-.2-.4-.9-.2-.1.5 0 .7.5.7 0 .6-.8.5-1.4.5.1.2.2.4.2.7-.2-.5-1.2-.1-.5.2-.9.4-.9-.4-1.2-.5-.3.1-.2.6-.2.9-.8-.4-.3-1.1.2-1.4 0-.5-.6.3-1.2 0 .1.4.1 1 .5 1.2-.3.6-.9-.5-.9-.9-.3.2 0 .5-.5.9 1-.5-.2.2 0 .9-.8-.6.1-.6-1.2-.7-.1.5.3.5.7.5-.4.5 0 .3 0 .9-.7.4-.3 0-.7.7-.3-.6-.8.5-.7-.5-.6-.1.1 1.1-.7.7.2.2.4.4.7.5.3-.5 0-.2.5-.5.8.3-1.2.8-.5.9-.1.3-.5.2-.5.5-.7-.2.3-.6.2-.9-.8-.1-.6.8-.9 1.2-.4-.6-.7-.2-1.2.2-.1-1.2-2 0-3.1-.7-.2.7.8.3.5 1.2-.8-.4-.2.9-.9 1.4-.4-.2 0-.4 0-.7-.6.3-.8 1-.9 1.7-.8-.2-2.5-.6-3.3-.2-.5-.5-1-1-.7-1.7-.6.3-.4.5-1.2.2-.7-.1.6.7-.2.7.2.4.4-.1.9.2-.2-.2-.5-.2-.5-.7.4.1.6.4.9.5-1 1.8-2.6 3-4.5 3.3-.5-.4.3-.7-.5-.9-.3.1-.2.5 0 .5-.1.4-.3-.1-.7 0 .9-1.3-1.3-1.5-.2-2.1-.1-.4-.3.1-.7 0 0-.4-.3-.5-.2-.9 1.2 0 .6-1.8 1.7-1.9-.1-.4-.3.1-.7 0-.1-.5.3-.5.7-.5 0-.3-.4-.2-.7-.2v-.9h.9c-.2-.7-.4-.3-.9-.2.3-.6.8-.9 1.4-1.2-.1-.9-.4-1.4-.5-1.7.1-.5.4.3.7-.2.1-.3-.9-.6-.2-.7.3.5.6.4 1.7.7-.4-.8-1.2-1.4.2-1.2v-.5c-.9-.3-.3-.9-.9-.9-.7 0 1.6-.4.2-.9-.6-.6.8.3.9-.2.1-.6-.4-.5-.2-1.2h1.2c-.7-.6-.2-.6 0-1.4.3-.7.3.7 0 .7.5-.1.4-.7 1.2-.5-.3-.6-.8-1.5-.7-1.2-.5-.4.9-.9 1.2-1.2-.2-.2-.4-.4-.7-.5v-.5c.2-.4.3.1.2.5.2-.2.2-.5.7-.5.3-.8-.8-.2-.5-.9.2.1.4.3.5 0 .3 0 .2.4.2.7.7-.2-.1-.8 0-1.2.8.7-.1-.8 1.2-.7-.1.5-.7.5-.2.9.2 0 .2-.3.2-.5.2 0 .2.1.2.2.4-.1-.2-.4.2-.5-.5-.3-.9-.9-.9-1.7.8-.4.6-.8.2-1.4.2.2.6.1.7.5.4 0 .2-.8.7-.7.1-.5-.7 0-.7.2-.2-.4.2-1.6.9-.7 0-.4-.3-.5-.2-.9-.4-.1-.4.2-.7.2-.5.6.4-.6.5-.9.5-.1.6.2.9.2.2 0 .2-.3.2-.5-.8 0-.3-1.1.7-.5 0-.2-.3-.2-.5-.2.5-.3 1.2-.3 1.4.2.4-.1-.1-.3 0-.7-1.1.2-.9-.2-2.1.2 0-.2.1-.2.2-.2 0-.3-.4-.2-.7-.2 0-.3 0-.7-.2-.7.2 0 1.9.3 1.2.9.2-.1.4-.2.5-.5-1.2-.4.1-1.1-.5-1.9.8-1 .9-.1 2.1-.5v.7c-.2 0-.2-.3-.2-.5-.2 0-.2.2-.5.2.2.4.7.2.2.7.3-.1.6-.4.7-.7 0-.6-.4-.7-.5-1.2-.6 0-1.2 0-1.2.5-.9-.7.8-.9.5-1.9-.5.8-1.8 1.5-2.6.7.2.4.7.6.5 1.4.8-1.6.8 1.2-.9 1.2.3.4.8.5-.2.5.8.4.8.8-.2 1.4.1.4.3-.1.7 0 0 .3.1.4.2.5 0 .3-.2.1-.2 0-.2.2-.4.4-.5.7-.7.2-.7-.4-1.4-.2.2.5 1.4.1 1.2.9-.3-.1-.4-.4-.7-.5-.7-.1.6.7-.2.7.9.1-.3 1.4-.9 1.7.5-.3-.3-.6.2-.7-.2-.2-.4-.4-.7-.5.2.2.1.6.5.7-1 1.2-1 .5-.9 1.9.5 0 .3-.6.9-.5-.5.5.3.7.2 1.4-.2 0-.2-.1-.2-.2-.5.2-.1 1.4-.9 1.2.4-.4.3-1.1-.5-.9.5.7.6 1-.7.9.1-.3.4-.4.5-.7-.8.3-.5.4-1.4.5.2.7.6-.3.9.2 0 .4.1.9-.2.9.1.6.4-.3.9 0-.1.3-.4.4-.5.7.6-.3.7-.5.5-1.2.2.1.4.3.5 0 .3.1.2.5.5.5-.8.1-1.5 2.1-1.9 1.2-.8.2-.4.8-.7.9.2.2.4.4.7.5-.6.5-.3.4-.5 1.4-.8-.2-.1-.4-.2-1.2-.4.6-3.3-.8-2.4.9.3-.1 0-.4-.2-.5.3-.5.9.5 1.2.7.7-.2-.6-.4-.2-.9.6-.4.5 1 .7.2.4.1-.3.8.7.7-.1.2-.3.4 0 .5-.1.6-.4-.3-.9 0 .8.7 0 .8-1.2.9.2-.6-.5-.5-.5-.9-.7.2.3.6 0 1.2.9 1.2.9-.9 1.2.7-.3.3-1.1-.1-.5.5-.1.3-.4 0-.5-.2-.2 0-.2.2-.5.2 0 .3.2.1.2 0 .7 0-.3 1.2.2.5.4-.1 0 .9-.5.7V80c-.3.1-.4.4-.7.5 0 .3.2.1.2 0 .3.1.2.5.5.5-.4-.2-.6.9-1.2.5-.1.3.7.8.7.2.3-.7.3.4 0 .5-.4.1-.4-.2-.7-.2-.1.4.2.4.2.7.4.1.4-.2.7-.2.8.1-1.2.5-.2.7 0 .6-.8 0-.7-.2-.7.2.6.4.2.9-.2-.2-.6-.1-.7-.5-.7.1.4.4.2.7-.5-.2-1.5.7-1.7 1.7.6.1.2-.9.9-.7-.1.5-.7.4-.5 1.2-.2-.1-.4-.3-.5 0-.3 0-.2-.4-.2-.7-.5.4-.3 0-.9 0 0 .6 1 .2.7 1.2-.2 0-.2-.2-.5-.2-.1.4.2.4.5.5v.9c-.8-1.3-.5 1.4-1.2 1.7-.6.5.3-.5.2-.9-.6-.1-.2.9-.9.7.8 1 .2 1.2.2 1.9-.2.6-.4-.6-1.2-.2.2.3.8.3.9.7l-.9 1.2c1.4 0-1 1.3-.7 1.7 0 .6-.6-.1-.5-.5h-.7c.2.2.4.4.7.5 0 .7-1.2-.3-.5.2-.9 1-3.3-.5-4.3-.7 1.1-.1-.7-1.5.5-2.1-.6.7.2 1.2.2 1.9.2-.5.2-1 .9-1.4-.3-.7-.5.7-1.2.5.3-1 0-.8-.2-1.7-.4 0-.1.8-.5.9-.2-.5-1.8-.8-.7-1.2-.1-.6-.4.3-.9 0-.4-.3-.2-1.2-.2-1.9h.7c0 .7-.5.8.2.5.5-.6-.1.3-.2.5.2 1.1 1-.4 1.4.2-1-1.3-2.2-2.1-2.4-2.6.1-.2.3-.4 0-.5.1-.3.4 0 .5.2 0-.4.8-1.8.2-2.1 1.1-.5.4-.4 1.4-.9-.6-.2-1.3.2-1.7.2-.2-.2.1-1.1-.7-1.2-.1.4.2.4.5.5.1.5-.7.3-.7.7.2.4.4-.1.9.2-.2.5-.4 1.1-.7 1.4-.4-1-1.3.6-.9-.5-.2.1-.4.2-.5.5.2.7.8-.1 1.2 0 .1.2.2.4.2.7-.2 0-.2-.3-.2-.5-1.2 1.2-1.6.2-2.8.9-.8-.3 0-.6-.7-.9-.2.1-.4.2-.5.5-.1-.4-.2-.3-.5-.9-1.8.4-2.6-1.2-4-.7.4-.3-.4-1.2.2-1.7-.1-.3-.2 0-.5 0-.5.3.5-.6.9-.5-.7-.9-1.6.5-.9-.9-.2.1-.4.2-.5.5-.3-.1.2-1.1-.2-1.7.5.7 1 0 1.4.7.7-.1-.4-.4-.2-.7-.3 0-.4.1-.5.2-.6-.1.5-1.4-.5-.7-.5.6.1-.3.2-.5.9.9.6-.5 1.9.2-.1-.2-.2-.4-.2-.7-.2.1-.4.2-.5.5-.3-.6-1-.7-.9-1.7.4.1.4-.2.5-.5.2.1.4.2.5.5.6-.3.1-2.4.9-1.7-1-.3-.7-1.8-.7-2.4 1.2-.7.7-.9 1.2-1.7-.1-.3-.4 0-.5.2-.9-.4 1-1 .2-1.2.6 0 .6-.8.7-1.4.5.1-.4.7.5.2-.1-.5-.7-.4-.5-1.2.6.3 1 .5.5-.2.6-.1 1.4-.1.5-1.2.7-.4.5.2.7-.7.2 0 .2.3.2.5.7-1.3-1.5.6-1.2-1.4.3.2.4.5.5.9.5-.6.4-.7 1.4-.5-.1-.2-1.1-.6-.9-.2.1-.9-.3-.1.2-1.4.8.6 1 .1 1.7.7-.4-.8-1.7-.6-1.2-1.9 0-.2-.1-.2-.2-.2-.6-.5.8 0 .7.5.2-.2.4-.4.5-.7.1.8.3.8 1.2.2 0-.2-.2-.2-.2-.5 0 .2-.4 1-.5-.2-.6.6-.2-.5-1.2-.2.1.4.7.2.5.9-1.6-.9.9-2.4-.7-2.8.3-.6 1.1.5 1.4.7-.1.5-.6.5-.9.7.1.8 1-.6 1.2.2.3-.1.2-.5.5-.5 0-.3-.2-.1-.2 0-.3-.4-.5-.9-.9-1.2.3-.3 1.4-1 .7-1.4.4-.1.4-.5 1.2-.2-.1-.4-.4-.5-.9-.5.3-.3.1-1.3.7-.7-.4-.8-.2-1-.9-1.7.2-.2.7-.3 1.2 0-.1-.4-.4-.5-.9-.5 0-.6.4-.7.7-.9 0-.2-.8-.7-.7-.2-.2 0-.2-.3-.2-.5-.3.1-.2.6-.2.9-.4-.4-1.4-.1-1.2-.9-.8.1.7 1.1-.5.9 1.4 0-.1 1.9.7 2.6-.5-.1-.3.5-.7.5.1.3.4 0 .5-.2.7.2-.2.5 0 .9-.2-.1-.4-.2-.7-.2l.7.7c0 .3-.2.1-.2 0-.3.1-.2.5 0 .5-.2.7-.4-.6-.9-.2-.4.1.1.3 0 .7h-.5c0 .6.8 0 .7-.2.4.1.5.4.5.9-.2 0-.2-.3-.2-.5-.4.6-.5.1-.9.7.3.5.8.8 1.4.9-.1.3-.5.2-.5 0-.2.1-.4.2-.5.5-.7-.1.4-.4.2-.7-.7 0-1 .4-1.2.9.2 0 .2-.1.2-.2.5 0-1.1 1.4.5 1.2-.6.2-.5 1.1-1.4.9.8.4-.9.9.2.9-.8.4-1.3 1.1-2.1 1.4.1.5.6-.3.9.2-.3-.5-.3-.5.2-.2-.1.6-1.2.4-1.2 1.2-.2-.3-.9-.1-.7-.7.2.1.4.2.7.2-.4-.4-.7-.7-.9-1.2-.9.6.7 1.5 0 1.9.9-.5.5.2 1.2.5-.1.5-.4.5-.7.2 1 .9-.2 1.5 0 2.4-.6.1-.7.4-1.4.9-.1.3.7.8.7.2.3.1.2.5.5.5-1.9-.2-.9.7-.9 1.7 0 .7-1.2 1-.2 1.2-.4.5-.4.2-.2.9-.8-.4-.5-.6-.7-1.4.4 0 .6-.2.7-.5 0-.2-.2-.2-.2-.5-.8.7-.7 1.4-.9 2.1.4.4.8-.2 1.2.5-.3.4-.8 0-1.2.7 0 .3.2.1.2 0 .4.2 0 .4 0 .7 1.2.1-.8.4-.5 1.9-.6 0-.3-.2-.2-.5-.2.1-.4.2-.5.5 0 .5.2.8.7.7-.1.3-.5.2-.5.5-.2-.2-.2-.5-.7-.5 0-.2.2-.2.2-.5-1 .6.6 1.7-.5 2.4-.4-.2 0-.4 0-.7-.2 0-.2.2-.5.2.4 1.4-.1 2.6-1.2 2.6-.1.5.3.5.7.5-.5.2-.2 1.2-.9 1.2.2.2.5.2.5.7-.4.1-.4-.2-.7-.2.3.8-.1.4.5.7v.5c-.4 0-.5-.3-.9-.2.1.4.7.2.5.9-.3-.1-.6-.4-.7-.7-.6 0-.5.4-.9 0 .2.3.4.8.9.7.2.8-.2.9-.5 1.2-.3-.2-.2-.5 0-.9-1.2 1.5-3.1.7-3.8-.2-.4.1.1.3 0 .7-.8.3-.8-1.1-1-.4 0 .3-.5-1.2-.2-1.7-.5-.1-.3.7-.7.7.1.5.4-.3.7.2 0 .4-.8.1-.9.5 1.1-.1.3 1.7-.2 2.6-.3-.1-.4-.4-.7-.5.1.6.6.8.7 1.4-.6-.9-.3 1.3-.7 0-.7.2.3.6 0 1.2-.5.4-.3 0-.9 0 .1.3.3.5.7.5-.1.3-.4.4-.5.7-1-.3-.2-1.1-.9-1.7-.2 0-.2.2-.5.2 0 1 1.2.7.9 1.9-.4-.5-.8-.7-.5.2-.2-.1-.4-.3-.5 0-.2 0-.2-.3-.2-.5-.3 1.2-1.3-.5-1.2.5h-.9c0-.2.3-.2.5-.2 0-.2-.1-.2-.2-.2 0-.2.3-.2.5-.2 0-.4-.3-.5-.2-.9-.4-.1-.4.2-.7.2 0 .3 0 .7.2.7-1.1.6.1-2.2-1.4-1.2.2-.3.2-.9.9-.7-.2-.4-.8-.4-1.2-.7 0-.5 1.1-1 .5-1.4.2-.4.4 0 .7 0-.3-.3-.2-.5.2-.5-.5-.6-1-2.3 0-1.9-.7-.8.4-.9.7-1.4-.6-.5.1-1.2-.7-1.2-.7.7.5-1 .7 0 .6.1-.1-1.1.7-.7 0-.2-.2-.2-.2-.5l-.7.7c-.3-.3.3-.7.2-1.2.6.5.6-.1 0-.2.1-.3.2 0 .5 0 0-.4-.2-.6-.5-.7.2-.4.4 0 .7 0-.1-.3-.4-.6-.7-.7.1-.6.4.3.9 0 .4-.9-1.1-1.1-.5-1.4 0 0 .4-.2.7.5.3-.1.6-.4.2-.5 0-.2.3-.2.5-.2-.7-.3 0-.6-.5-.9-.1-.7.9.6.9-.2-.2-.3-.4.1-.7-.5.2-.3.5-.4.9-.5-.2-.7-.5.2-.9 0 .3-.6.8-.7 1.4-.5-.4-.3-.7-1.1-.9-.2-.4-.2-.5-.6-.2-.9-.5.3-1.1.3-.7.5-1.4.5.2-1.3.7-1.7 0-.2-.2-.2-.2-.5 0 .5-.9 1.5-1.4 2.1 1.3.9-.6 1 .2 1.9.3 0 .1-.2 0-.2.1-.3.5-.2.5-.5-.1.6-1 2.4-1.9 3.1.5 1.4-.6 0-.5 2.6-.3-.6-.8.5-.7-.5-.1.9.9 1.2-.5 2.4 0 .3.4.2.7.2-.2.3-.3.6-.2 1.2-.5-.1-.7 0-.7.5-.8.3-.2-.8-.9-.5.4.8 1 .8.2 1.7.1.3.4 0 .5-.2.3.1-.2 1.5-.9 1.4.3.3.1.4 0 .7 1-.8-.7 2.1-.9 1.7 0 .4.3.5.2.9-.7.1-.9.7-1.4.9-.6.1-1.1-1-1.7-.2-.3 0-.2-.4-.2-.7-.2 0-.2.3-.2.5-.5-.6-.4-.2-1.2-.5.1-.4.4-.6.5-.9.2 0 .2.3.2.5.3-.2.4-.5.5-.9-.4 0-.8-.4-.9-1.2-.5.8.6 1.2-.5 1.9-.4-.2 0-.4 0-.7-.6-.2-.5.5-.7.7-.8-.9-1.4.7-1.4-.7-.4-.1-.4.2-.5.5-.4 0-.5-.3-.9-.2.2-.7.2-.5 0-1.2.3-.3.6-.3.9 0-.2-1.3-1.1.5-1.4-.2.2-.2.5-.2.5-.7.3.3.4.1.7 0-.6-.7-1.5.5-1.7 1.7-.3-.4-1-.9-.5-1.4.4.1-.1.3 0 .7 1-.3.3-1.5 0-1.9.4.6.8-.3.2-.5.4-.4.7-.8 1.2-1.2 0-.5-.6-.3-.5-.9.3.3.6.1.2 0 .1-.7.7 0 .5.5.7-.3-.3-.9.2-1.2-.2.1-.4.2-.7.2.3-.5 1.1-.6.2-1.2-.1-.5.7 0 .7.2.3 0 .2-.4.2-.7-.8.5 0-.1-.5-.2.5-.5.8-.7.5-1.4.5.1 1 .7.5 0 .7-.1.4 0 1.7 0-.5-.7-1-.1-1.7-.5.1-1.4.1-1.9.1-2.2.2-.4.4 0 .7 0-.3-.3-.2-.5.2-.5-.2-.7-1.5-.8-.9-.7.3-.1.2-.5 0-.5.5.2.7-.6 1.7-.7-.5-.9.6-1.8.2-2.4.1-.3.4 0 .5.2.5-.2-.4-1.2.7-1.2-.1-.2-.3-.4 0-.5-1.2-.2-.1-.5-.5-1.7.5 0 .8-.2.7-.7-.8 1.1-.4-.6 0-.9.6 0 1.1.5.7.9.6-.7 1.4.6.9.9.2 0 .2-.2.5-.2-.8-.9-.5-1.2-.2-1.9-.5.1-.6.5-1.2.5 0-.6-.4-.7 0-1.2.4.1.6.4.9.5-.1-.2-.2-.4-.2-.7-.3.3-.4.1-.7 0-.1-.5 0-.9.2-1.2.2 0 .2.2.5.2.2 0 .2-.3.2-.5.4.3.5.8 1.2.7 0 .2-.2.2-.2.5.7-.2.3-.4.2-.9-.3.3-.4.1-.7 0 .2-.4.6-.5 1.2-.5-1-1.4.4.5.2-.9.3.3.5.2.5-.2.3.1.5.3.5.7.2 0 .2-.2.5-.2 0-.2-.3-.2-.5-.2 0-.6.8-.1.9 0-.1.3-.5.2-.5.5s.4.2.7.2c0-2-1.1-.7-1.9-1.4-.2.2-.4.4-.5.7-.2-1.1-.3.3-1.4.2.1.3.4.6.5.2.7 1-1.6.6-.7-.5 1.2.1 1-1.2 1.4-1.9-.2.2-.2.5-.7.5.3-.3.1-.6 0-.2-.3-.1-.2-.5-.5-.5.5-.3.7-.1 1.4-.5-.1-.2-.2-.4-.2-.7-.4 0-.1.8-.5.9-.7 0 .3-1.2-.2-.5-.3 0 0-1.4.7-1.2-.1-.2-.2-.4-.5-.5 1.2-.2 1.1-.5 2.4-1.2-.2-.7-.4.6-.9.2 0-.2.1-.2.2-.2-.2-.2-.5-.2-.5-.7.6.3 1.1.2 1.4-.7.4 0 .5.3.9.2-.1.3-.4.4-.5.7.5-.5.5.1.2.5.8-.1 1.7-1 1.2-1.7-.2 0-.2.2-.5.2.8.1-.1.3.2.7-1.2.9.3-1.5-1.4-.9.4-.2.5-1 .9-.5-1.2-2.3 0-1.7-.5-3.6.2-.6 1 .2.9.7.4 0 .2-.8.7-.7-.3-.4-1.4.3-.5-.7-.7.7 0-1.4-1.2-1.4.1-.6.4.3.9 0-.5-.4-.2-.7-.5-.9.3.1 1.1-.1 1.7 0-.1-.7-1.2-.4-.9-1.4.3.1.5.3.5.7h1.2c-.5-.2-.7-.9-1.2-1.2.1-.2.2-.4.2-.7.5-.1.6.2.9.2-.3-.3-.2-.5.2-.5-.2-.4-.4 0-.7 0-.7-.1.4-.4.5-.5-.2-.5 0-1.4-.5-.9-.3-.3-.1-.7.2-1.2.6 0 .1.8 0 .9h.7c-.2-.7-.2-.5 0-1.2-.1-.3-.5-.2-.5 0-.4-.8 1-.3 1.2-1.2-.8.2-.9-.2 0-.9-.1-.3-.5-.2-.5 0-.9-.6 1-.2.5-1.2.5.1.5.4.2.7.5.1.9 0 1.2-.2-.1-.3-.6-.2-.9-.2.1-.4-.2-.4-.5-.5.5-.3.7.1.9-.7.1-.6-1.1.1-.7-.7 1.2.5.6-.1.9-1.2.5.6 1 .3 1.7 0 0 0-1.1-.5-.9.2-.5-.1-.5-.6-.9-.7.1-.3.4 0 .5.2.6 0 .7-.4 1.4-.2-.3-.7.1-.6-.2-1.2-.3.1-.3.7 0 .7-.2.7-.8-.1-1.2 0 .2-.5.5-.9.7-1.4.6 0 .7.4 1.4.2-.1.3-.4.4-.5.7.7.6 1.1-.2.7-.9-1.2.1-.6-.2-.9-.7-.4.3-.5.8-1.2.7 0-.2.3-.2.5-.2 0-.2-.1-.2-.2-.2.2-.3.5 0 .9-.5-.5-.4-.2-.7-.5-.9 0-.7 1.2 1.1 1.2-.2.3.1.2.6.2.9.5-.1.5-.7.9-.2-.9-.7-.3-.3-.5-1.4-.5.1.3.4-.2.7-.4-.2-.7-.8-.9 0-.3.5.7-2.1-.2-3.1.2.1.4.2.7.2-.2.8.4.7.5 1.2.4-.3.6-.3.9 0-.8-.3-.4-1.6-.9-1.2-.6-.3.6-.8.9-.9 0-.3-.2-.1-.2 0-.1-1.4-.6-.6-.7-1.9.2.2.4.4.5.7-.1-1 2.4-1.6.7-2.6.2-.4.4.1.9-.2 0-.2-.3-.2-.5-.2-.4-.4 1.5 0 1.7 0-.6.6-.3 1.3.2.5.6.2-.4.7-.5.9.3.5.9-.6.9-1.2-.1-.4-.4.2-.5-.2-.1-.4.2-.4.2-.7.6 1 .3-.3 1.2-.2-.1-.4.3-1.4-.2-1.4-.7.2.3.6 0 1.2-.4 0-1-.4-.5 0 .1.6-1.4-.4-.7.2-.5.5-.9-1.2-.7-2.1.7 1.3.6-.8.9.5 1.2-.4.1-.8.5-1.4-1-.1-.1.5-.2.9-.2-.2-.5-.3-.9-.2 0-.7.9-.6.2-1.2-.3 0-.1.2 0 .2-.1.4-.4-.2-.5.2-.6-.2.5-.5.5-.9 1.2.5 1.6.9 2.4 1.4-.5-1.5-1-.5-.9-2.1-.2-.1-2.2-.7-1.2-1.7.3.1.2.5 0 .5l.7.7c.3 0 .1-.2 0-.2.4-.2.6-.7.5-1.4.9.2 2.8-2.7.7-2.1-.5.8.1-.8.2 0 .4-1.2 1.8-1.4 2.1-2.6.3.7.9-.1.5.7.7-.6.7-.9 1.4-1.2-.5-.6-.6-.5-.7-1.2-.2 0-.2.2-.5.2.2.8.7.8 0 1.4-.4-.2-.1-.5.2-.5-.2-.2-.5-.2-.5-.7-.4-.1-.4.2-.7.2.7.1.7.5 0 1.2-.3 0-.1-.2 0-.2-1.1-.5.1-.4-.7-1.2-.6-.5.3.1.5.2.7-.4.2-.9.2-1.7.7.6.8-.6.5-.7 1.1-.7-.5 1.6.9.7 0 .7-.7.8-.9.5.4.8 1.7 0 1.9 1.4.3-.5.1-.7.5-1.4-.2.2-.4.4-.5.7-.3-.5-.3-1.4-1.2-1.4.8-.3.3-.6.9-.7-.1-.8-.6 0-.7-.5-.1-.4.2-.5.2-.2.4-.1-.1-.3 0-.7.2.1.4.2.7.2-.2 1.7.7 1.3.7 2.4 0 .5.9-.4.9.5.6-.2-.7-.5 0-.9H36c-.3-1.3-.2-1.6-.7-2.6.2-.4.5-.7.9-.9-.8-.7-.8 1.4-1.9 1.2 0-.2.3-.2.5-.2-.9-.4-.3-.9-.9-1.2.4-.9.4.6.9.2 0 .2-.3.2-.5.2.1.3.5.2.5.5.4-1.3 1.9-1.2 2.6-1.2-.3-.3-.3-.9 0-1.2-.2.1-.4.2-.7.2.4.5-.5.6-1.2.5 1.4-.6-.2-2.7.7-2.4.2-.6-.5-.5-.5-.9-.5.1-.7.6-1.4.5.1-.2.3-.4 0-.5.1-.4.7.2.9-.5.6.2.8.9 1.4 1.2.2 0 .2-.2.5-.2-.5-1.1 0-1.4-.9-1.4.3-.4.2-1.1.9-.9-.2.8.8.3.9.7 0-.6-.7-.5-.7-1.2.6 0 .6-.5.9-.7.9.4-.6.4-.2.9.5-.2.8-.8 1.3-.3"></path>
    </g>
</svg></g><defs id="SvgjsDefs1008"></defs></svg></g><g id="SvgjsG1011" transform="rotate(0 265.984375 50.2890625)"><svg xmlns="http://www.w3.org/2000/svg" xmlns:xlink="http://www.w3.org/1999/xlink" width="254.4375" viewBox="2.299999952316284 12.600000381469727 254.4499969482422 48.80000305175781" overflow="visible" style="overflow: visible;" transform="" version="1.1" xmlns:svgjs="http://svgjs.com/svgjs" preserveAspectRatio="none" height="48.796875" x="138.765625" y="25.890625" fill="#000000" stroke="none"><path stroke="none" fill="#1e1e1e" d="M5.55 50.90L5.55 50.90Q4.55 50.90 3.83 50.45L3.83 50.45L3.83 50.45Q3.10 50.00 3.10 49.20L3.10 49.20L3.10 49.20Q4.20 48.10 4.20 43.35L4.20 43.35L4.20 43.35Q4.20 40.50 3.75 35.05L3.75 35.05L3.75 35.05Q3.25 29.85 3.25 26.85L3.25 26.85L3.35 24.10L3.35 24.10Q3.40 22.90 3.40 21.35L3.40 21.35L3.40 21.35Q3.40 19.95 2.90 17.80L2.90 17.80L2.90 17.80Q2.30 15.55 2.30 14.65L2.30 14.65L2.30 14.65Q2.30 12.90 6.15 12.90L6.15 12.90L6.90 12.90L6.90 12.90Q9.60 12.90 11.60 14.55L11.60 14.55L11.60 14.55Q13.20 15.95 14.30 18.60L14.30 18.60L14.30 18.60Q15.05 20.40 15.60 23.60L15.60 23.60L15.60 23.60Q15.90 26.40 15.90 28.00L15.90 28.00L15.90 29.60L15.90 31.95L15.90 31.95Q15.80 32.15 15.80 32.35L15.80 32.35L15.80 32.35Q15.80 32.75 15.85 32.95L15.85 32.95L15.85 32.95Q15.90 33.15 15.90 33.45L15.90 33.45L15.90 33.45Q15.90 35.05 15.43 37.28L15.43 37.28L15.43 37.28Q14.95 39.50 14.05 41.80L14.05 41.80L14.05 41.80Q11.80 47.30 9 49.60L9 49.60L9 49.60Q7.35 50.90 5.55 50.90L5.55 50.90ZM6.60 48.00L6.60 48.00Q8.45 46.85 9.85 44.68L9.85 44.68L9.85 44.68Q11.25 42.50 12 39.85L12 39.85L12 39.85Q13.35 34.95 13.35 29.95L13.35 29.95L13.35 29.95Q13.35 27.25 12.85 24.05L12.85 24.05L12.85 24.05Q12.30 20.95 10.50 18.45L10.50 18.45L10.50 18.45Q9.65 17.25 8.35 16.58L8.35 16.58L8.35 16.58Q7.05 15.90 5.40 15.90L5.40 15.90L5.40 15.95L5.40 15.95Q5.40 20.45 6 29.55L6 29.55L6 29.55Q6.60 38.60 6.60 43.25L6.60 43.25L6.60 48.00ZM27.85 51.75L27.85 51.75Q26.55 51.75 25.45 50.93L25.45 50.93L25.45 50.93Q24.35 50.10 23.65 48.70L23.65 48.70L23.65 48.70Q22.20 45.65 21.85 42.05L21.85 42.05L21.85 42.05Q21.40 38.65 21.40 35.50L21.40 35.50L21.40 35.50Q21.40 34.90 21.45 34.50L21.45 34.50L21.45 33.60L21.45 33.60Q21.45 33.35 21.40 33.35L21.40 33.35L21.40 32.45L21.45 28.95L21.45 28.95Q21.50 27.35 21.85 23.85L21.85 23.85L21.85 23.85Q22.10 21.45 23 19.20L23 19.20L23 19.20Q23.35 18.20 23.90 17.68L23.90 17.68L23.90 17.68Q24.45 17.15 25.15 17.15L25.15 17.15L25.15 17.15Q27.15 17.15 28.75 17.88L28.75 17.88L28.75 17.88Q30.35 18.60 31.45 19.90L31.45 19.90L31.45 19.90Q32.45 21.15 33.15 22.98L33.15 22.98L33.15 22.98Q33.85 24.80 34.15 26.85L34.15 26.85L34.15 26.85Q34.45 28.95 34.45 31.30L34.45 31.30L34.45 31.70L34.45 31.70Q34.45 33.25 34.50 34.50L34.50 34.50L34.55 37.35L34.55 37.35Q34.55 51.75 27.85 51.75L27.85 51.75ZM27.65 49.65L27.65 49.65Q28.55 49.65 29.30 48.93L29.30 48.93L29.30 48.93Q30.05 48.20 30.45 46.95L30.45 46.95L30.45 46.95Q31.40 44.40 31.60 41.45L31.60 41.45L31.60 41.45Q31.85 38.90 31.85 37.05L31.85 37.05L31.85 37.05Q31.85 34.80 31.50 31.15L31.50 31.15L31.50 31.15Q31.20 27.30 31.20 25.40L31.20 25.40L31.20 24.50L31.20 24.50Q31.10 22.60 29.93 21.20L29.93 21.20L29.93 21.20Q28.75 19.80 27.05 19.80L27.05 19.80L27.05 19.80Q25.35 19.80 24.80 21.75L24.80 21.75L24.80 21.75Q24.30 23.30 24.30 25.75L24.30 25.75L24.30 25.75Q24.30 26.70 24.35 27.35L24.35 27.35L24.35 28.70L24.25 31.00L24.25 31.00Q24.15 32.05 24.15 33.30L24.15 33.30L24.15 33.30Q24.15 36 24.30 38.65L24.30 38.65L24.30 38.65Q24.50 42.40 25.30 45.95L25.30 45.95L25.30 45.95Q26.10 49.65 27.65 49.65L27.65 49.65ZM60.15 53.40L60.15 53.40Q58.60 53.40 58.60 50.30L58.60 50.30L58.60 47.10L58.60 43.90L58.60 43.90Q58.60 41.40 58.25 37.35L58.25 37.35L58.25 37.35Q57.85 32.80 57.85 31.10L57.85 31.10L57.95 28.00L57.95 28.00Q58.05 26.65 58.05 24.95L58.05 24.95L58.05 24.95Q57.85 25.60 56.40 31.85L56.40 31.85L56.40 31.85Q54.95 37.90 53.40 43.05L53.40 43.05L53.40 43.05Q51.90 48.00 50.95 48.00L50.95 48.00L50.95 48.00Q50 48.00 49.43 47.43L49.43 47.43L49.43 47.43Q48.85 46.85 48.85 45.85L48.85 45.85L48.85 45.85Q48.85 43.65 47.08 36.50L47.08 36.50L47.08 36.50Q45.30 29.35 43.85 24.80L43.85 24.80L43.55 30.45L43.55 30.45Q43.15 37.60 43 42.35L43 42.35L43 42.35Q42.90 46.95 42.90 48.65L42.90 48.65L42.90 48.65Q42.90 49.05 42.95 49.40L42.95 49.40L42.95 50.10L42.95 50.10Q42.95 50.95 42.60 51.38L42.60 51.38L42.60 51.38Q42.25 51.80 41.30 51.80L41.30 51.80L41.30 51.80Q40.80 51.80 40.35 51.43L40.35 51.43L40.35 51.43Q39.90 51.05 39.90 50.60L39.90 50.60L39.90 50.60Q39.90 45.50 40.65 35.30L40.65 35.30L40.65 35.30Q41.40 25.10 41.40 20.00L41.40 20.00L41.40 20.00Q41.10 19.55 41.10 19.05L41.10 19.05L41.10 19.05Q41.10 18.45 41.68 18.13L41.68 18.13L41.68 18.13Q42.25 17.80 43.05 17.80L43.05 17.80L43.05 17.80Q43.70 17.80 45.45 22.50L45.45 22.50L45.45 22.50Q47.20 27.20 48.95 33.15L48.95 33.15L48.95 33.15Q50.70 39.10 51.20 41.75L51.20 41.75L51.20 41.75Q51.60 40.40 51.85 39.25L51.85 39.25L52.15 38.05L52.15 38.05Q53.75 31.05 55.35 25.40L55.35 25.40L55.35 25.40Q56.30 21.95 57.20 20.00L57.20 20.00L57.20 20.00Q58.10 17.90 58.85 17.90L58.85 17.90L58.85 17.90Q59.55 17.90 60.13 18.28L60.13 18.28L60.13 18.28Q60.70 18.65 60.70 19.25L60.70 19.25L60.70 19.25Q60.70 22.85 61 30.05L61 30.05L61 30.05Q61.35 36.75 61.35 40.45L61.35 40.45L61.30 43.10L61.20 45.75L61.20 45.75Q61.20 46.35 61.35 47.55L61.35 47.55L61.50 49.30L61.50 49.30Q61.55 49.75 61.58 50.00L61.58 50.00L61.58 50.00Q61.60 50.25 61.60 50.30L61.60 50.30L61.60 50.30Q61.85 50.95 61.85 51.25L61.85 51.25L61.85 51.25Q61.85 52.10 61.35 52.75L61.35 52.75L61.35 52.75Q60.85 53.40 60.15 53.40L60.15 53.40ZM70.55 50.75L70.55 50.75Q66.20 50.75 66.20 49.25L66.20 49.25L66.20 49.25Q66.20 48.05 67.75 48.05L67.75 48.05L68.30 48.05L68.80 48.10L68.80 48.10Q69.20 48.10 69.35 47.85L69.35 47.85L69.35 47.85Q69.50 47.60 69.50 46.95L69.50 46.95L69.50 46.95Q69.50 46.10 69.40 44.30L69.40 44.30L69.40 44.30Q69.25 43.10 69.05 40L69.05 40L69.05 40Q68.60 32.35 68.60 28.45L68.60 28.45L68.60 28.45Q68.60 27.05 68.65 25.90L68.65 25.90L68.70 23.35L68.70 23.35Q68.70 21.70 68.55 20.60L68.55 20.60L68.55 20.60Q67.75 20.80 67.40 20.80L67.40 20.80L67.40 20.80Q66.20 20.80 66.20 19.60L66.20 19.60L66.20 19.60Q66.20 19.00 66.95 18.55L66.95 18.55L66.95 18.55Q67.70 18.10 68.85 17.90L68.85 17.90L68.85 17.90Q70.85 17.50 72.40 17.50L72.40 17.50L72.40 17.50Q73 17.50 73.42 17.93L73.42 17.93L73.42 17.93Q73.85 18.35 73.85 18.90L73.85 18.90L73.85 18.90Q73.85 19.45 73.53 19.85L73.53 19.85L73.53 19.85Q73.20 20.25 72.70 20.25L72.70 20.25L72.70 20.25Q72.40 20.25 72.20 20.20L72.20 20.20L71.80 20.20L71.80 20.20Q71.30 20.20 71.08 20.43L71.08 20.43L71.08 20.43Q70.85 20.65 70.85 21.25L70.85 21.25L70.85 21.25Q70.85 26.10 71.45 35.85L71.45 35.85L71.45 35.85Q71.55 37.65 71.85 41.15L71.85 41.15L71.85 41.15Q72.10 43.45 72.10 45.85L72.10 45.85L72.10 47.75L72.10 47.75Q72.40 47.70 73.10 47.70L73.10 47.70L73.10 47.70Q75.20 47.70 75.20 49.45L75.20 49.45L75.20 49.75L73.95 50.60L73.95 50.60Q73.90 50.60 73.63 50.63L73.63 50.63L73.63 50.63Q73.35 50.65 72.60 50.65L72.60 50.65L72.60 50.65Q71 50.75 70.55 50.75L70.55 50.75ZM93 50.95L93 50.95Q92.40 50.95 92.10 50.63L92.10 50.63L92.10 50.63Q91.80 50.30 91.65 49.50L91.65 49.50L91.35 48.55L91.35 48.45L91.35 48.30L91.35 48.30Q91.35 46.65 87.92 37.05L87.92 37.05L87.92 37.05Q84.50 27.45 82.55 22.85L82.55 22.85L82.55 48.00L82.75 48.35L82.75 48.35Q82.80 48.45 82.95 48.70L82.95 48.70L82.95 48.70Q83.10 48.95 83.10 49.20L83.10 49.20L83.10 49.20Q83.10 49.85 82.65 50.30L82.65 50.30L82.65 50.30Q82.20 50.75 81.55 50.75L81.55 50.75L81.55 50.75Q79.95 50.75 79.95 47.70L79.95 47.70L79.90 39.15L79.90 39.15Q79.85 35.30 79.85 30.55L79.85 30.55L79.85 30.55Q79.85 28.95 80 25.90L80 25.90L80 25.90Q80.15 22.75 80.15 21.25L80.15 21.25L80.15 21.25Q80.15 18.90 81.95 17.55L81.95 17.55L81.95 17.85L81.95 17.85Q82.25 17.75 82.35 17.75L82.35 17.75L82.35 17.75Q83.50 17.75 85.25 21.75L85.25 21.75L85.25 21.75Q86.65 24.95 87.78 28.50L87.78 28.50L87.78 28.50Q88.90 32.05 90.75 38.60L90.75 38.60L91.25 40.40L91.25 40.40Q92.40 44.45 93 46.20L93 46.20L93 46.20Q94 35.45 94 20.80L94 20.80L94 20.15L94 20.15Q93.95 19.85 93.95 19.50L93.95 19.50L93.95 19.50Q93.95 18 95.15 18L95.15 18L95.15 18Q95.85 18 96.22 18.55L96.22 18.55L96.22 18.55Q96.60 19.10 96.60 19.95L96.60 19.95L96.60 23.70L96.60 23.70Q96.50 31.40 96 40.40L96 40.40L96 40.40Q95.50 49.40 94.80 50.55L94.80 50.55L94.80 50.55Q93.35 50.95 93 50.95L93 50.95ZM105.80 50.75L105.80 50.75Q101.45 50.75 101.45 49.25L101.45 49.25L101.45 49.25Q101.45 48.05 103 48.05L103 48.05L103.55 48.05L104.05 48.10L104.05 48.10Q104.45 48.10 104.60 47.85L104.60 47.85L104.60 47.85Q104.75 47.60 104.75 46.95L104.75 46.95L104.75 46.95Q104.75 46.10 104.65 44.30L104.65 44.30L104.65 44.30Q104.50 43.10 104.30 40L104.30 40L104.30 40Q103.85 32.35 103.85 28.45L103.85 28.45L103.85 28.45Q103.85 27.05 103.90 25.90L103.90 25.90L103.95 23.35L103.95 23.35Q103.95 21.70 103.80 20.60L103.80 20.60L103.80 20.60Q103 20.80 102.65 20.80L102.65 20.80L102.65 20.80Q101.45 20.80 101.45 19.60L101.45 19.60L101.45 19.60Q101.45 19.00 102.20 18.55L102.20 18.55L102.20 18.55Q102.95 18.10 104.10 17.90L104.10 17.90L104.10 17.90Q106.10 17.50 107.65 17.50L107.65 17.50L107.65 17.50Q108.25 17.50 108.67 17.93L108.67 17.93L108.67 17.93Q109.10 18.35 109.10 18.90L109.10 18.90L109.10 18.90Q109.10 19.45 108.78 19.85L108.78 19.85L108.78 19.85Q108.45 20.25 107.95 20.25L107.95 20.25L107.95 20.25Q107.65 20.25 107.45 20.20L107.45 20.20L107.05 20.20L107.05 20.20Q106.55 20.20 106.33 20.43L106.33 20.43L106.33 20.43Q106.10 20.65 106.10 21.25L106.10 21.25L106.10 21.25Q106.10 26.10 106.70 35.85L106.70 35.85L106.70 35.85Q106.80 37.65 107.10 41.15L107.10 41.15L107.10 41.15Q107.35 43.45 107.35 45.85L107.35 45.85L107.35 47.75L107.35 47.75Q107.65 47.70 108.35 47.70L108.35 47.70L108.35 47.70Q110.45 47.70 110.45 49.45L110.45 49.45L110.45 49.75L109.20 50.60L109.20 50.60Q109.15 50.60 108.88 50.63L108.88 50.63L108.88 50.63Q108.60 50.65 107.85 50.65L107.85 50.65L107.85 50.65Q106.25 50.75 105.80 50.75L105.80 50.75ZM125.05 61.40L125.05 61.35L125.05 61.35Q122.25 61.35 121.20 60.20L121.20 60.20L121.20 60.20Q121.20 59.20 121.05 57.90L121.05 57.90L120.95 56.85L120.95 56.85Q120.60 54.80 120.55 54.60L120.55 54.60L120.30 53.40L120.30 53.40Q120.10 52.30 120.10 52.30L120.10 52.30L120.10 52.30Q117.35 51.65 116.10 49.60L116.10 49.60L116.10 49.60Q114.75 47.45 114.35 44.55L114.35 44.55L114.35 44.55Q114 42.10 114 38.35L114 38.35L114 38.35Q114 36.65 114.05 35.30L114.05 35.30L114.05 32.40L114.05 32.40Q114.05 30.65 114.35 26.90L114.35 26.90L114.35 26.90Q114.70 23.45 115.90 20.50L115.90 20.50L115.90 20.50Q116.50 19.00 117.47 18.20L117.47 18.20L117.47 18.20Q118.45 17.40 119.70 17.40L119.70 17.40L119.70 17.40Q120.10 17.55 120.90 17.70L120.90 17.70L120.90 17.70Q121.75 17.95 121.95 18.05L121.95 18.05L121.95 18.05Q124.30 18.95 125.40 21.30L125.40 21.30L125.40 21.30Q126.50 23.60 126.75 26.15L126.75 26.15L126.75 26.15Q127 28.50 127 31.00L127 31.00L126.95 35.80L126.95 35.80Q126.80 38.95 126.40 42.35L126.40 42.35L126.40 42.35Q126.10 45.45 125.10 48.50L125.10 48.50L125.10 48.50Q124.15 51.30 122.55 52.00L122.55 52.00L122.55 52.00Q122.55 53.60 123.35 56.65L123.35 56.65L123.35 56.65Q123.65 57.55 123.90 58.75L123.90 58.75L123.90 58.75Q126.20 58.75 126.20 60.20L126.20 60.20L126.20 60.20Q126.20 60.70 125.88 61.05L125.88 61.05L125.88 61.05Q125.55 61.40 125.05 61.40L125.05 61.40ZM119.95 50.65L119.95 50.65Q120.65 50.35 121.40 50.35L121.40 50.35L121.40 50.35Q121.95 50.35 122.65 48.00L122.65 48.00L122.65 48.00Q123.35 45.65 123.85 42.65L123.85 42.65L123.85 42.65Q124.35 39.65 124.35 38.30L124.35 38.30L124.35 29.60L124.35 29.60Q124.35 19.35 119.40 19.35L119.40 19.35L119.40 19.35Q118.55 19.35 117.95 21.25L117.95 21.25L117.95 21.25Q117 24.05 116.65 30.55L116.65 30.55L116.65 30.55Q116.50 32.55 116.50 33.75L116.50 33.75L116.55 37.45L116.55 37.45Q116.60 38.75 116.80 41.55L116.80 41.55L116.80 41.55Q116.80 42.05 116.90 43.15L116.90 43.15L116.90 43.15Q117.10 45.60 117.95 48.35L117.95 48.35L117.95 48.35Q118.65 50.65 119.95 50.65L119.95 50.65ZM137.85 51.55L137.85 51.55Q136.65 51.55 135.70 51.03L135.70 51.03L135.70 51.03Q134.75 50.50 134.15 49.50L134.15 49.50L134.15 49.50Q132.95 47.40 132.60 44.75L132.60 44.75L132.60 44.75Q132.25 42.45 132.25 39.25L132.25 39.25L132.25 39.25Q132.10 33.85 132.10 26.05L132.10 26.05L132.05 22.20L132.05 22.20Q132 21.90 132 21.20L132 21.20L132 21.20Q131.90 19.30 131.90 18.90L131.90 18.90L131.90 18.90Q132.35 17.85 132.95 17.85L132.95 17.85L132.95 17.85Q133.55 17.85 134.02 18.75L134.02 18.75L134.02 18.75Q134.50 19.65 134.50 20.70L134.50 20.70L134.50 34.30L134.50 34.30Q134.50 36.30 134.85 39.60L134.85 39.60L134.85 39.60Q135.20 43.70 135.20 44.90L135.20 44.90L135.20 44.90Q135.20 48.60 138.35 48.60L138.35 48.60L138.35 48.60Q141.95 48.60 141.95 21.70L141.95 21.70L141.95 18.90L141.95 18.45L141.95 18.45Q141.90 18.30 141.90 18.05L141.90 18.05L141.90 18.05Q141.90 17.45 142.17 17.18L142.17 17.18L142.17 17.18Q142.45 16.90 143.25 16.90L143.25 16.90L143.25 16.90Q143.90 16.90 144.27 17.28L144.27 17.28L144.27 17.28Q144.65 17.65 144.75 18.15L144.75 18.15L144.75 18.15Q144.80 18.45 144.80 19.30L144.80 19.30L144.80 19.30Q144.80 20.10 144.65 21.85L144.65 21.85L144.65 21.85Q144.45 23.30 144.45 24.35L144.45 24.35L144.45 24.35Q144.45 25.50 144.35 26.40L144.35 26.40L144.25 28.50L144.25 28.90L144.25 28.90Q144.30 29.10 144.30 29.35L144.30 29.35L144.30 29.35Q144.30 51.55 137.85 51.55L137.85 51.55ZM152.85 51.45L152.85 51.45Q152.20 51.45 151.68 51.00L151.68 51.00L151.68 51.00Q151.15 50.55 151.10 49.90L151.10 49.90L151.10 48.60L151.10 47.60L151.10 47.60Q151.05 47.15 151.05 46.55L151.05 46.55L151.05 46.55Q151.05 45.50 150.90 43.35L150.90 43.35L150.80 40.15L150.80 40.15Q150.80 37.70 150.95 32.85L150.95 32.85L150.95 32.85Q151.15 28.50 151.15 25.55L151.15 25.55L151.15 25.55Q151.15 24.85 151 23.45L151 23.45L151 23.45Q150.85 22.00 150.85 21.35L150.85 21.35L150.85 21.35Q150.85 17.80 152.95 17.80L152.95 17.80L152.95 17.80Q154.60 17.80 156.78 18.45L156.78 18.45L156.78 18.45Q158.95 19.10 158.95 20.00L158.95 20.00L158.95 20.00Q158.95 20.50 158.53 20.93L158.53 20.93L158.53 20.93Q158.10 21.35 157.50 21.60L157.50 21.60L157.50 21.60Q155.40 20.85 153.70 20.60L153.70 20.60L153.70 20.60Q153.75 21.35 153.75 22.75L153.75 22.75L153.75 22.75Q153.75 24.75 153.70 26.35L153.70 26.35L153.70 26.35Q153.55 28.75 153.55 29.95L153.55 29.95L153.70 30.75L154.50 30.70L154.50 30.70Q154.90 30.65 155.50 30.65L155.50 30.65L155.50 30.65Q157.90 30.65 157.90 32.05L157.90 32.05L157.90 32.05Q157.90 32.60 157.45 32.98L157.45 32.98L157.45 32.98Q157 33.35 156.30 33.35L156.30 33.35L156.30 33.35Q155.40 33.35 154.90 33.25L154.90 33.25L153.65 33.25L153.65 33.25Q153.75 34.55 153.75 37.05L153.75 37.05L153.75 37.05Q153.75 39.55 153.70 41.55L153.70 41.55L153.70 41.55Q153.55 44.60 153.55 46.10L153.55 46.10L153.55 46.10Q153.55 48.90 153.65 48.90L153.65 48.90L155.30 48.85L155.30 48.85Q156.15 48.80 157.35 48.80L157.35 48.80L157.35 48.80Q159.25 48.80 159.25 50.00L159.25 50.00L159.25 50.00Q159.25 50.70 158.63 51.08L158.63 51.08L158.63 51.08Q158 51.45 157.10 51.45L157.10 51.45L152.85 51.45ZM180.75 51.60L180.75 51.60Q179.35 51.60 178.17 50.95L178.17 50.95L178.17 50.95Q177 50.30 176.15 49.20L176.15 49.20L176.15 49.20Q175.40 48.15 174.80 46.53L174.80 46.53L174.80 46.53Q174.20 44.90 173.90 43.15L173.90 43.15L173.90 43.15Q173.30 40.20 173.10 35.40L173.10 35.40L173.10 35.40Q173.05 34.25 173.05 31.45L173.05 31.45L173.05 28.30L173.05 28.30Q173.10 26.95 173.10 25.50L173.10 25.50L173.10 25.50Q173.10 22.55 173.45 20.85L173.45 20.85L173.45 20.85Q173.30 20.10 173.30 19.30L173.30 19.30L173.30 19.30Q173.30 16.30 175.55 14.45L175.55 14.45L175.55 14.45Q177.80 12.60 181.25 12.60L181.25 12.60L181.25 12.60Q182.55 12.60 183.65 13.30L183.65 13.30L183.65 13.30Q184.75 14 184.75 15.05L184.75 15.05L184.75 15.05Q184.75 15.55 184.35 15.85L184.35 15.85L184.35 15.85Q183.95 16.15 183.35 16.15L183.35 16.15L183.35 16.15Q182.85 16.15 182.28 16L182.28 16L182.28 16Q181.70 15.85 181.55 15.55L181.55 15.55L180.90 15.55L180.90 15.45L180.90 15.45Q179.05 15.45 177.80 16.25L177.80 16.25L177.80 16.25Q176.90 16.90 176.40 18.40L176.40 18.40L176.40 18.40Q176.20 18.95 176.10 19.80L176.10 19.80L176.10 19.80Q176 20.65 176 21.35L176 21.35L176 21.35Q175.95 21.75 175.95 22.95L175.95 22.95L176.05 24.70L176.10 26.40L176.10 26.40Q176.10 27.15 175.90 28.15L175.90 28.15L175.90 28.15Q175.65 29.40 175.65 29.90L175.65 29.90L175.65 31.10L175.65 31.10Q175.65 33.05 175.80 36.45L175.80 36.45L175.80 36.45Q175.85 39.30 176.45 42.15L176.45 42.15L176.45 42.15Q176.90 44.80 178.15 46.65L178.15 46.65L178.15 46.65Q179.35 48.55 181.40 48.55L181.40 48.55L181.40 48.55Q182.25 48.55 183.50 47.65L183.50 47.65L183.50 47.65Q184.85 46.75 185.40 46.75L185.40 46.75L185.40 46.75Q186.10 46.75 186.85 47.50L186.85 47.50L186.85 47.50Q186.85 49.35 185.45 50.35L185.45 50.35L185.45 50.35Q184.15 51.25 182.35 51.50L182.35 51.50L182.35 51.50Q181.35 51.60 180.75 51.60L180.75 51.60ZM196.60 51.75L196.60 51.75Q195.30 51.75 194.20 50.93L194.20 50.93L194.20 50.93Q193.10 50.10 192.40 48.70L192.40 48.70L192.40 48.70Q190.95 45.65 190.60 42.05L190.60 42.05L190.60 42.05Q190.15 38.65 190.15 35.50L190.15 35.50L190.15 35.50Q190.15 34.90 190.20 34.50L190.20 34.50L190.20 33.60L190.20 33.60Q190.20 33.35 190.15 33.35L190.15 33.35L190.15 32.45L190.20 28.95L190.20 28.95Q190.25 27.35 190.60 23.85L190.60 23.85L190.60 23.85Q190.85 21.45 191.75 19.20L191.75 19.20L191.75 19.20Q192.10 18.20 192.65 17.68L192.65 17.68L192.65 17.68Q193.20 17.15 193.90 17.15L193.90 17.15L193.90 17.15Q195.90 17.15 197.50 17.88L197.50 17.88L197.50 17.88Q199.10 18.60 200.20 19.90L200.20 19.90L200.20 19.90Q201.20 21.15 201.90 22.98L201.90 22.98L201.90 22.98Q202.60 24.80 202.90 26.85L202.90 26.85L202.90 26.85Q203.20 28.95 203.20 31.30L203.20 31.30L203.20 31.70L203.20 31.70Q203.20 33.25 203.25 34.50L203.25 34.50L203.30 37.35L203.30 37.35Q203.30 51.75 196.60 51.75L196.60 51.75ZM196.40 49.65L196.40 49.65Q197.30 49.65 198.05 48.93L198.05 48.93L198.05 48.93Q198.80 48.20 199.20 46.95L199.20 46.95L199.20 46.95Q200.15 44.40 200.35 41.45L200.35 41.45L200.35 41.45Q200.60 38.90 200.60 37.05L200.60 37.05L200.60 37.05Q200.60 34.80 200.25 31.15L200.25 31.15L200.25 31.15Q199.95 27.30 199.95 25.40L199.95 25.40L199.95 24.50L199.95 24.50Q199.85 22.60 198.67 21.20L198.67 21.20L198.67 21.20Q197.50 19.80 195.80 19.80L195.80 19.80L195.80 19.80Q194.10 19.80 193.55 21.75L193.55 21.75L193.55 21.75Q193.05 23.30 193.05 25.75L193.05 25.75L193.05 25.75Q193.05 26.70 193.10 27.35L193.10 27.35L193.10 28.70L193 31.00L193 31.00Q192.90 32.05 192.90 33.30L192.90 33.30L192.90 33.30Q192.90 36 193.05 38.65L193.05 38.65L193.05 38.65Q193.25 42.40 194.05 45.95L194.05 45.95L194.05 45.95Q194.85 49.65 196.40 49.65L196.40 49.65ZM217.55 50.80L217.55 50.80Q215.85 50.80 215.85 42.55L215.85 42.55L215.90 39.70L215.95 37.40L215.95 37.25L215.95 36.75L215.95 36.75Q216 36.35 216 35.80L216 35.80L216 35.80Q216 35.70 215.85 35.55L215.85 35.55L215.85 35.55Q215.70 35.40 215.70 35.30L215.70 35.30L215.70 35.25L215.70 35.25Q215.45 35.35 214.80 35.35L214.80 35.35L214.80 35.35Q214.15 35.35 213.20 35.15L213.20 35.15L213.20 35.15Q212.90 35.10 211.60 34.90L211.60 34.90L211.60 40.65L211.60 40.65Q211.60 41.95 211.75 44.75L211.75 44.75L211.75 44.75Q211.90 47.50 211.90 48.85L211.90 48.85L211.90 48.85Q211.90 49.60 211.50 50.15L211.50 50.15L211.50 50.15Q211.10 50.70 210.45 50.70L210.45 50.70L210.45 50.70Q209.50 50.70 209.10 48.85L209.10 48.85L209.10 48.85Q208.70 46.95 208.70 43.90L208.70 43.90L208.80 39.85L208.80 39.85Q208.85 38.15 208.85 36.25L208.85 36.25L208.85 35.40L208.85 34.70L208.85 34.70Q208.85 33.90 208.80 33.65L208.80 33.65L208.80 33.40L208.95 30.50L208.95 30.50Q208.95 28.60 208.80 24.85L208.80 24.85L208.80 24.85Q208.65 21.10 208.65 19.20L208.65 19.20L208.65 19.20Q208.65 18.60 209.05 18.15L209.05 18.15L209.05 18.15Q209.45 17.70 210.05 17.70L210.05 17.70L210.05 17.70Q211.65 17.70 211.65 20.70L211.65 20.70L211.55 26.90L211.55 26.90Q211.45 29.70 211.45 33.15L211.45 33.15L211.45 33.15Q212.20 33.40 214.15 33.40L214.15 33.40L216 33.40L216 33.40Q216.10 33.10 216.10 32.80L216.10 32.80L216.10 32.80Q216.10 30.40 215.80 25.70L215.80 25.70L215.80 25.70Q215.45 21.30 215.45 18.55L215.45 18.55L215.45 18.55Q215.45 18 215.88 17.63L215.88 17.63L215.88 17.63Q216.30 17.25 216.90 17.25L216.90 17.25L216.90 17.25Q217.25 17.25 217.90 17.50L217.90 17.50L218.35 17.70L218.35 17.70Q218.35 24.80 218.85 36.65L218.85 36.65L219.30 49.30L219.30 49.30Q219.30 50.00 218.77 50.40L218.77 50.40L218.77 50.40Q218.25 50.80 217.55 50.80L217.55 50.80ZM227.60 51.45L227.60 51.45Q226.95 51.45 226.43 51.00L226.43 51.00L226.43 51.00Q225.90 50.55 225.85 49.90L225.85 49.90L225.85 48.60L225.85 47.60L225.85 47.60Q225.80 47.15 225.80 46.55L225.80 46.55L225.80 46.55Q225.80 45.50 225.65 43.35L225.65 43.35L225.55 40.15L225.55 40.15Q225.55 37.70 225.70 32.85L225.70 32.85L225.70 32.85Q225.90 28.50 225.90 25.55L225.90 25.55L225.90 25.55Q225.90 24.85 225.75 23.45L225.75 23.45L225.75 23.45Q225.60 22.00 225.60 21.35L225.60 21.35L225.60 21.35Q225.60 17.80 227.70 17.80L227.70 17.80L227.70 17.80Q229.35 17.80 231.53 18.45L231.53 18.45L231.53 18.45Q233.70 19.10 233.70 20.00L233.70 20.00L233.70 20.00Q233.70 20.50 233.28 20.93L233.28 20.93L233.28 20.93Q232.85 21.35 232.25 21.60L232.25 21.60L232.25 21.60Q230.15 20.85 228.45 20.60L228.45 20.60L228.45 20.60Q228.50 21.35 228.50 22.75L228.50 22.75L228.50 22.75Q228.50 24.75 228.45 26.35L228.45 26.35L228.45 26.35Q228.30 28.75 228.30 29.95L228.30 29.95L228.45 30.75L229.25 30.70L229.25 30.70Q229.65 30.65 230.25 30.65L230.25 30.65L230.25 30.65Q232.65 30.65 232.65 32.05L232.65 32.05L232.65 32.05Q232.65 32.60 232.20 32.98L232.20 32.98L232.20 32.98Q231.75 33.35 231.05 33.35L231.05 33.35L231.05 33.35Q230.15 33.35 229.65 33.25L229.65 33.25L228.40 33.25L228.40 33.25Q228.50 34.55 228.50 37.05L228.50 37.05L228.50 37.05Q228.50 39.55 228.45 41.55L228.45 41.55L228.45 41.55Q228.30 44.60 228.30 46.10L228.30 46.10L228.30 46.10Q228.30 48.90 228.40 48.90L228.40 48.90L230.05 48.85L230.05 48.85Q230.90 48.80 232.10 48.80L232.10 48.80L232.10 48.80Q234 48.80 234 50.00L234 50.00L234 50.00Q234 50.70 233.38 51.08L233.38 51.08L233.38 51.08Q232.75 51.45 231.85 51.45L231.85 51.45L227.60 51.45ZM253.15 50.95L253.15 50.95Q252.55 50.95 252.25 50.63L252.25 50.63L252.25 50.63Q251.95 50.30 251.80 49.50L251.80 49.50L251.50 48.55L251.50 48.45L251.50 48.30L251.50 48.30Q251.50 46.65 248.07 37.05L248.07 37.05L248.07 37.05Q244.65 27.45 242.70 22.85L242.70 22.85L242.70 48.00L242.90 48.35L242.90 48.35Q242.95 48.45 243.10 48.70L243.10 48.70L243.10 48.70Q243.25 48.95 243.25 49.20L243.25 49.20L243.25 49.20Q243.25 49.85 242.80 50.30L242.80 50.30L242.80 50.30Q242.35 50.75 241.70 50.75L241.70 50.75L241.70 50.75Q240.10 50.75 240.10 47.70L240.10 47.70L240.05 39.15L240.05 39.15Q240 35.30 240 30.55L240 30.55L240 30.55Q240 28.95 240.15 25.90L240.15 25.90L240.15 25.90Q240.30 22.75 240.30 21.25L240.30 21.25L240.30 21.25Q240.30 18.90 242.10 17.55L242.10 17.55L242.10 17.85L242.10 17.85Q242.40 17.75 242.50 17.75L242.50 17.75L242.50 17.75Q243.65 17.75 245.40 21.75L245.40 21.75L245.40 21.75Q246.80 24.95 247.92 28.50L247.92 28.50L247.92 28.50Q249.05 32.05 250.90 38.60L250.90 38.60L251.40 40.40L251.40 40.40Q252.55 44.45 253.15 46.20L253.15 46.20L253.15 46.20Q254.15 35.45 254.15 20.80L254.15 20.80L254.15 20.15L254.15 20.15Q254.10 19.85 254.10 19.50L254.10 19.50L254.10 19.50Q254.10 18 255.30 18L255.30 18L255.30 18Q256 18 256.38 18.55L256.38 18.55L256.38 18.55Q256.75 19.10 256.75 19.95L256.75 19.95L256.75 23.70L256.75 23.70Q256.65 31.40 256.15 40.40L256.15 40.40L256.15 40.40Q255.65 49.40 254.95 50.55L254.95 50.55L254.95 50.55Q253.50 50.95 253.15 50.95L253.15 50.95Z" transform="rotate(0 129.52499842643738 37.00000190734863)"></path><defs id="SvgjsDefs1010"></defs></svg></g><g id="SvgjsG1013" transform="rotate(0 158.078125 96.8984375)"><svg xmlns="http://www.w3.org/2000/svg" xmlns:xlink="http://www.w3.org/1999/xlink" width="38.625" viewBox="0.699999988079071 4.360000133514404 38.63999938964844 14.430000305175781" overflow="visible" style="overflow: visible;" transform="" version="1.1" xmlns:svgjs="http://svgjs.com/svgjs" preserveAspectRatio="none" height="14.421875" x="138.765625" y="89.6875" fill="#000000" stroke="none"><path stroke="none" fill="#1e1e1e" d="M2.11 18.68L2.11 18.68Q1.46 18.68 0.99 18.45L0.99 18.45L0.99 18.45Q0.70 18.29 0.70 18.07L0.70 18.07L0.70 18.07Q0.70 17.86 0.81 17.72L0.81 17.72L0.81 17.72Q0.92 17.59 1.12 17.59L1.12 17.59L1.12 17.59Q1.30 17.59 1.64 17.73L1.64 17.73L1.64 17.73Q2.02 17.87 2.11 17.87L2.11 17.87L2.11 17.87Q2.45 17.87 2.73 17.58L2.73 17.58L2.73 17.58Q3.01 17.28 3.17 16.79L3.17 16.79L3.17 16.79Q3.49 15.89 3.49 15.17L3.49 15.17L3.49 15.17Q3.49 14.40 3.25 13.55L3.25 13.55L3.25 13.55Q3.01 12.69 2.59 11.88L2.59 11.88L2.30 11.30L2.30 11.30Q1.85 10.40 1.61 9.88L1.61 9.88L1.61 9.88Q1.37 9.36 1.19 8.75L1.19 8.75L1.19 8.75Q0.92 7.88 0.92 7.07L0.92 7.07L0.92 7.07Q0.92 6.43 1.14 5.85L1.14 5.85L1.14 5.85Q1.37 5.27 1.82 4.88L1.82 4.88L1.82 4.88Q2.27 4.45 2.93 4.45L2.93 4.45L2.93 4.45Q3.26 4.45 3.56 4.64L3.56 4.64L3.56 4.64Q3.87 4.82 4.00 5.11L4.00 5.11L3.69 5.49L3.69 5.49Q3.22 5.49 2.99 5.31L2.99 5.31L2.99 5.31Q2.66 5.35 2.42 5.63L2.42 5.63L2.42 5.63Q2.18 5.90 2.05 6.26L2.05 6.26L2.05 6.26Q1.94 6.61 1.94 6.95L1.94 6.95L1.94 6.95Q1.94 7.63 2.13 8.34L2.13 8.34L2.13 8.34Q2.32 9.05 2.63 9.68L2.63 9.68L3.89 12.20L3.89 12.20Q4.19 12.85 4.37 13.66L4.37 13.66L4.37 13.66Q4.55 14.47 4.55 15.28L4.55 15.28L4.55 15.28Q4.55 16.47 3.98 17.51L3.98 17.51L3.98 17.51Q3.67 18.05 3.19 18.37L3.19 18.37L3.19 18.37Q2.70 18.68 2.11 18.68L2.11 18.68ZM8.96 18.41L8.96 18.41Q8.69 18.41 8.53 18.15L8.53 18.15L8.53 18.15Q8.38 17.89 8.38 17.51L8.38 17.51L8.38 17.51Q8.38 16.92 8.45 16.06L8.45 16.06L8.49 15.59L8.52 14.63L8.52 14.63Q8.52 14.00 8.40 11.83L8.40 11.83L8.40 11.83Q8.27 9.65 8.27 9.02L8.27 9.02L8.27 9.02Q8.27 8.96 8.28 8.81L8.28 8.81L8.28 8.81Q8.29 8.66 8.29 8.33L8.29 8.33L8.29 8.33Q8.31 7.97 8.31 7.45L8.31 7.45L8.31 7.45Q8.31 6.14 8.13 5.78L8.13 5.78L8.13 5.78Q8.02 5.78 7.66 5.83L7.66 5.83L7.16 5.87L7.16 5.87Q6.92 5.87 6.74 5.73L6.74 5.73L6.74 5.73Q6.56 5.60 6.56 5.38L6.56 5.38L6.56 5.38Q6.56 5.17 6.99 5.00L6.99 5.00L6.99 5.00Q7.62 4.79 9.14 4.70L9.14 4.70L9.14 4.70Q9.75 4.66 9.87 4.66L9.87 4.66L9.87 4.66Q10.09 4.66 10.27 4.81L10.27 4.81L10.27 4.81Q10.45 4.95 10.45 5.17L10.45 5.17L10.45 5.17Q10.45 5.38 10.30 5.52L10.30 5.52L10.30 5.52Q10.14 5.65 9.91 5.65L9.91 5.65L9.59 5.63L9.59 5.63Q9.44 5.62 9.26 5.62L9.26 5.62L9.08 5.62L9.08 5.62Q9.21 6.84 9.21 7.83L9.21 7.83L9.19 8.98L9.19 8.98Q9.17 9.50 9.17 10.15L9.17 10.15L9.17 10.15Q9.17 11.02 9.24 12.22L9.24 12.22L9.24 12.22Q9.33 13.72 9.33 14.29L9.33 14.29L9.33 14.29Q9.33 14.98 9.41 15.91L9.41 15.91L9.41 15.91Q9.48 16.87 9.48 17.53L9.48 17.53L9.48 17.53Q9.48 18.41 8.96 18.41L8.96 18.41ZM16.45 18.61L16.45 18.61Q15.34 18.61 14.69 17.64L14.69 17.64L14.69 17.64Q13.99 16.65 13.70 15.21L13.70 15.21L13.70 15.21Q13.38 13.68 13.29 11.93L13.29 11.93L13.29 11.93Q13.20 10.35 13.20 8.50L13.20 8.50L13.20 7.00L13.20 7.00Q13.21 6.37 13.21 5.67L13.21 5.67L13.21 5.67Q13.07 5.53 13.07 5.31L13.07 5.31L13.07 5.31Q13.07 5.09 13.23 4.92L13.23 4.92L13.23 4.92Q13.39 4.75 13.59 4.75L13.59 4.75L13.59 4.75Q14.24 4.75 14.24 6.03L14.24 6.03L14.24 6.03Q14.24 6.86 14.33 9.16L14.33 9.16L14.33 9.16Q14.42 11.47 14.42 12.29L14.42 12.29L14.42 12.29Q14.51 12.53 14.59 13.23L14.59 13.23L14.59 13.23Q14.67 13.93 14.67 14.38L14.67 14.38L14.67 14.38Q14.67 14.78 14.80 15.36L14.80 15.36L14.80 15.36Q14.92 15.95 15.16 16.54L15.16 16.54L15.16 16.54Q15.39 17.17 15.77 17.58L15.77 17.58L15.77 17.58Q16.15 17.98 16.56 17.98L16.56 17.98L16.56 17.98Q16.81 17.98 16.98 17.82L16.98 17.82L16.98 17.82Q17.16 17.66 17.21 17.35L17.21 17.35L17.21 17.35Q17.32 16.85 17.32 16.36L17.32 16.36L17.32 12.85L17.32 12.85Q17.32 12.19 17.19 11.16L17.19 11.16L17.19 11.16Q17.08 10.03 17.08 9.45L17.08 9.45L17.08 9.32L17.08 9.32Q17.08 9.04 17.07 8.80L17.07 8.80L17.05 8.28L17.05 8.28Q17.05 7.78 16.99 6.75L16.99 6.75L16.99 6.75Q16.92 5.83 16.92 5.20L16.92 5.20L16.92 5.20Q16.92 5.00 17.13 4.86L17.13 4.86L17.13 4.86Q17.34 4.72 17.59 4.72L17.59 4.72L18.04 5.13L18.04 5.44L18.04 5.44Q18.04 5.65 17.97 5.96L17.97 5.96L17.97 5.96Q17.89 6.46 17.89 6.53L17.89 6.53L17.89 6.53Q17.89 8.17 18.07 11.05L18.07 11.05L18.07 11.05Q18.24 14.08 18.24 15.75L18.24 15.75L18.24 15.75Q18.24 16.65 18.06 17.33L18.06 17.33L18.06 17.33Q17.95 17.75 17.76 18.00L17.76 18.00L17.76 18.00Q17.57 18.25 17.25 18.43L17.25 18.43L17.25 18.43Q16.94 18.61 16.45 18.61L16.45 18.61ZM22.46 18.32L22.46 18.32Q22.10 18.32 21.84 18.16L21.84 18.16L21.84 18.16Q21.58 18.00 21.58 17.71L21.58 17.71L21.58 17.71Q21.97 17.32 21.97 15.61L21.97 15.61L21.97 15.61Q21.97 14.58 21.81 12.62L21.81 12.62L21.81 12.62Q21.63 10.75 21.63 9.67L21.63 9.67L21.67 8.68L21.67 8.68Q21.68 8.24 21.68 7.69L21.68 7.69L21.68 7.69Q21.68 7.18 21.50 6.41L21.50 6.41L21.50 6.41Q21.29 5.60 21.29 5.27L21.29 5.27L21.29 5.27Q21.29 4.64 22.67 4.64L22.67 4.64L22.94 4.64L22.94 4.64Q23.92 4.64 24.64 5.24L24.64 5.24L24.64 5.24Q25.21 5.74 25.61 6.70L25.61 6.70L25.61 6.70Q25.88 7.34 26.08 8.50L26.08 8.50L26.08 8.50Q26.18 9.50 26.18 10.08L26.18 10.08L26.18 10.66L26.18 11.50L26.18 11.50Q26.15 11.57 26.15 11.65L26.15 11.65L26.15 11.65Q26.15 11.79 26.17 11.86L26.17 11.86L26.17 11.86Q26.18 11.93 26.18 12.04L26.18 12.04L26.18 12.04Q26.18 12.62 26.01 13.42L26.01 13.42L26.01 13.42Q25.84 14.22 25.52 15.05L25.52 15.05L25.52 15.05Q24.71 17.03 23.70 17.86L23.70 17.86L23.70 17.86Q23.11 18.32 22.46 18.32L22.46 18.32ZM22.84 17.28L22.84 17.28Q23.50 16.87 24.01 16.08L24.01 16.08L24.01 16.08Q24.51 15.30 24.78 14.35L24.78 14.35L24.78 14.35Q25.27 12.58 25.27 10.78L25.27 10.78L25.27 10.78Q25.27 9.81 25.09 8.66L25.09 8.66L25.09 8.66Q24.89 7.54 24.24 6.64L24.24 6.64L24.24 6.64Q23.93 6.21 23.47 5.97L23.47 5.97L23.47 5.97Q23.00 5.72 22.40 5.72L22.40 5.72L22.40 5.74L22.40 5.74Q22.40 7.36 22.62 10.64L22.62 10.64L22.62 10.64Q22.84 13.90 22.84 15.57L22.84 15.57L22.84 17.28ZM30.50 18.27L30.50 18.27Q28.95 18.27 28.95 17.73L28.95 17.73L28.95 17.73Q28.95 17.30 29.49 17.30L29.49 17.30L29.70 17.30L29.70 17.30Q29.78 17.32 29.87 17.32L29.87 17.32L29.87 17.32Q30.01 17.32 30.07 17.23L30.07 17.23L30.07 17.23Q30.14 17.14 30.14 16.90L30.14 16.90L30.14 16.90Q30.14 15.37 29.96 12.73L29.96 12.73L29.96 12.73Q29.79 9.97 29.79 8.57L29.79 8.57L29.79 8.57Q29.79 8.06 29.81 7.65L29.81 7.65L29.83 6.73L29.83 6.73Q29.83 6.14 29.78 5.74L29.78 5.74L29.78 5.74Q29.58 5.81 29.36 5.81L29.36 5.81L29.36 5.81Q28.95 5.81 28.95 5.38L28.95 5.38L28.95 5.38Q28.95 5.17 29.21 5.00L29.21 5.00L29.21 5.00Q29.47 4.84 29.88 4.77L29.88 4.77L29.88 4.77Q30.64 4.64 31.16 4.64L31.16 4.64L31.16 4.64Q31.38 4.64 31.53 4.79L31.53 4.79L31.53 4.79Q31.68 4.93 31.68 5.13L31.68 5.13L31.68 5.13Q31.68 5.33 31.57 5.47L31.57 5.47L31.57 5.47Q31.45 5.62 31.27 5.62L31.27 5.62L31.27 5.62Q31.16 5.62 31.09 5.60L31.09 5.60L30.95 5.60L30.95 5.60Q30.77 5.60 30.69 5.68L30.69 5.68L30.69 5.68Q30.60 5.76 30.60 5.98L30.60 5.98L30.60 5.98Q30.60 7.88 30.84 11.23L30.84 11.23L30.84 11.23Q31.05 14.74 31.05 16.51L31.05 16.51L31.05 17.19L31.05 17.19Q31.18 17.17 31.41 17.17L31.41 17.17L31.41 17.17Q32.17 17.17 32.17 17.80L32.17 17.80L32.17 17.91L31.72 18.22L31.72 18.22Q31.70 18.22 31.61 18.23L31.61 18.23L31.61 18.23Q31.52 18.23 31.25 18.23L31.25 18.23L31.25 18.23Q30.64 18.27 30.50 18.27L30.50 18.27ZM37.35 18.79L37.35 18.79Q36.86 18.79 36.46 18.47L36.46 18.47L36.46 18.47Q36.07 18.14 35.78 17.59L35.78 17.59L35.78 17.59Q35.26 16.61 35.01 14.92L35.01 14.92L35.01 14.92Q34.83 13.75 34.74 12.22L34.74 12.22L34.72 11.27L34.72 10.30L34.72 10.30Q34.70 9.83 34.70 9.16L34.70 9.16L34.70 9.16Q34.70 8.08 34.79 7.25L34.79 7.25L34.79 7.25Q34.86 6.39 35.15 5.54L35.15 5.54L35.15 5.54Q35.44 4.81 35.98 4.50L35.98 4.50L35.98 4.50Q36.30 4.36 36.63 4.36L36.63 4.36L36.63 4.36Q37.58 4.36 38.14 5.11L38.14 5.11L38.14 5.11Q38.75 5.96 38.95 7.00L38.95 7.00L38.95 7.00Q39.24 8.26 39.27 9.41L39.27 9.41L39.27 9.41Q39.34 10.69 39.34 11.83L39.34 11.83L39.34 12.85L39.34 12.85Q39.34 13.16 39.25 14.00L39.25 14.00L39.25 14.00Q39.18 14.67 39.18 15.14L39.18 15.14L39.18 15.21L39.18 15.21Q39.07 15.71 39.07 16.40L39.07 16.40L39.07 16.40Q39.07 16.90 38.86 17.44L38.86 17.44L38.86 17.44Q38.64 17.98 38.25 18.36L38.25 18.36L38.25 18.36Q37.85 18.79 37.35 18.79L37.35 18.79ZM37.38 17.80L37.38 17.80Q37.74 17.80 37.99 17.14L37.99 17.14L37.99 17.14Q38.21 16.54 38.31 15.69L38.31 15.69L38.31 15.69Q38.41 14.83 38.48 13.75L38.48 13.75L38.48 13.75Q38.52 13.28 38.52 12.55L38.52 12.55L38.50 10.89L38.50 10.89Q38.46 9.92 38.28 8.46L38.28 8.46L38.28 8.46Q38.14 7.22 37.74 6.26L37.74 6.26L37.74 6.26Q37.56 5.81 37.29 5.56L37.29 5.56L37.29 5.56Q37.02 5.31 36.72 5.31L36.72 5.31L36.72 5.31Q36.27 5.31 36.05 6.01L36.05 6.01L36.05 6.01Q35.78 6.75 35.69 7.63L35.69 7.63L35.69 7.63Q35.58 8.59 35.56 9.45L35.56 9.45L35.55 10.04L35.55 10.04Q35.53 10.30 35.53 10.73L35.53 10.73L35.53 10.80L35.53 10.80Q35.53 12.01 35.78 13.77L35.78 13.77L35.78 13.77Q36.07 16.16 36.63 17.17L36.63 17.17L36.63 17.17Q36.99 17.80 37.38 17.80L37.38 17.80Z" transform="rotate(0 20.01999968290329 11.575000286102295)"></path><defs id="SvgjsDefs1012"></defs></svg></g></svg>